/* XPM */
static char *afae5c4549664ccbd19c36e740df46a6UkLt0ACshGzPQiEW[] = {
/* columns rows colors chars-per-pixel */
"61 64 148 2 ",
"   c #1D1E1E",
".  c #201F1F",
"X  c #1F201F",
"o  c #20201F",
"O  c #1F1F20",
"+  c #201F20",
"@  c #1F2020",
"#  c #222222",
"$  c #292626",
"%  c #2B2827",
"&  c #2E2929",
"*  c #332D2C",
"=  c #382F2F",
"-  c #37302E",
";  c #38312F",
":  c #3C3332",
">  c #413635",
",  c #453837",
"<  c #483B37",
"1  c #453738",
"2  c #463A39",
"3  c #4B3C3B",
"4  c #4B3D3B",
"5  c #4A3C3B",
"6  c #493C3A",
"7  c #4C3D3B",
"8  c #4C3E3A",
"9  c #4C3F3A",
"0  c #4D3F3A",
"q  c #4C3E3B",
"w  c #4C3F3B",
"e  c #4D3F3B",
"r  c #4E3F3B",
"t  c #4C3D3C",
"y  c #4C3E3C",
"u  c #4D3E3C",
"i  c #4D3F3C",
"p  c #4E3F3C",
"a  c #4E3F3D",
"s  c #4F3F3D",
"d  c #493C3A",
"f  c #503F3D",
"g  c #4D403B",
"h  c #4E403B",
"j  c #4F403D",
"k  c #4F403E",
"l  c #4F403D",
"z  c #50413D",
"x  c #50403E",
"c  c #51413E",
"v  c #52413F",
"b  c #52423E",
"n  c #53423F",
"m  c #54433F",
"M  c #51413E",
"N  c #524240",
"B  c #534240",
"V  c #534340",
"C  c #544340",
"Z  c #554340",
"A  c #554541",
"S  c #564441",
"D  c #574541",
"F  c #574542",
"G  c #574642",
"H  c #554441",
"J  c #584642",
"K  c #594743",
"L  c #5A4744",
"P  c #594743",
"I  c #5B4844",
"U  c #5C4944",
"Y  c #5C4945",
"T  c #5D4945",
"R  c #5D4A45",
"E  c #5E4A45",
"W  c #5E4A46",
"Q  c #5F4A46",
"!  c #5E4B46",
"~  c #5F4B46",
"^  c #5F4B47",
"/  c #5C4945",
"(  c #5F4B48",
")  c #604B47",
"_  c #604C47",
"`  c #614C47",
"'  c #614C47",
"]  c #614C48",
"[  c #614D48",
"{  c #634E48",
"}  c #634F48",
"|  c #644E48",
" . c #644F48",
".. c #644E49",
"X. c #644F49",
"o. c #654F49",
"O. c #644E4A",
"+. c #644F4A",
"@. c #654F4A",
"#. c #634E49",
"$. c #66504A",
"%. c #67514B",
"&. c #67504B",
"*. c #68524B",
"=. c #68514C",
"-. c #69514C",
";. c #6A524C",
":. c #6A534C",
">. c #6A524D",
",. c #6A534D",
"<. c #6B534D",
"1. c #6C534E",
"2. c #6B544E",
"3. c #6C544E",
"4. c #6D554E",
"5. c #6C544F",
"6. c #6D544F",
"7. c #6E554E",
"8. c #6B534D",
"9. c #6E5550",
"0. c #6F5650",
"q. c #715751",
"w. c #705650",
"e. c #705851",
"r. c #725851",
"t. c #735851",
"y. c #725852",
"u. c #735852",
"i. c #735952",
"p. c #745952",
"a. c #745953",
"s. c #755953",
"d. c #745A53",
"f. c #755A53",
"g. c #755B53",
"h. c #775C55",
"j. c #775C56",
"k. c #735952",
"l. c #785C55",
"z. c #795C55",
"x. c #785D56",
"c. c #795D56",
"v. c #795D57",
"b. c #7A5D56",
"n. c #795E57",
"m. c #7A5E56",
"M. c #7A5E57",
"N. c #7B5E57",
/* pixels */
"M.M.M.M.M.M.M.M.M.i. .G 4 2 2 6 i ~ >.i.9.} C c G  .i.M.M.M.M.M.h.h.M.M.M.s.>.~ c k G  .q.M.M.M.M.M.M.M.M.M.M.M.M.M.M.M.M.",
"i.i.i.i.i.i.s.s.i.2._ C 4 2 , 2 i G  .1.>.~ c e V _ 3.i.s.s.s.s.s.s.s.s.s.i.>.I i i C } 3.s.s.s.i.i.i.i.i.i.i.i.i.i.i.i.i.",
" . . . .}  . . . .~ G k 6 > > > , i J ~ I c 2 , 4 m ~  .*.>.1.3.3.3.3.3.3.>.} c 6 2 e L %.>.>.%. .}  .} } }  . .}  . . . .",
"g i i e e e e e e e 4 6 2 > : * ; : , 4 2 : : * : > 4 c G I ~ ) ( ~ ~ _ } ~ C 6 : : > i J ~ J c e e e e e e e e e e i i g ",
"* * * * * * * * * ; : > , : * & & & * * * * & $ & * * : > 4 c V V V V V V c 2 : * & * > i i , : ; * * * * * * * * * * * * ",
"# # $ $ $ $ $ $ $ & * : > : * & $ $ $ $ $ $ $ $ $ $ $ & * > 2 6 6 6 6 6 4 2 > * & % * : , > : * $ $ $ $ $ $ % & % $ $ # # ",
"    # # $ $ $ % % * ; : > > : * & $ $ % % % & & % $ & * * : , 2 2 2 2 2 2 2 : ; * * * : > > : * & $ $ $ & * * ; * % #     ",
"    # $ & * * * * : : > , > : : * * * * * * * * * * * : : > 1 2 2 2 2 2 2 2 > : : : : > > > : : * * * * : > 4 e , - $     ",
". # $ & ; : > > > > > , , , , > > > > > > > > > > > > > > , 1 2 2 2 2 2 2 2 , > > > > , , 2 , > > > : > 2 c ~ _ G , * #   ",
"$ $ & * : , 2 2 2 2 2 2 2 2 2 2 2 2 2 2 2 2 2 2 2 2 2 2 2 2 2 2 2 2 2 2 2 2 2 2 2 2 2 2 2 2 2 2 2 , , 2 k I >.3.} i - $ # ",
"* * * : > 2 6 6 2 6 2 2 2 2 2 2 6 6 6 6 6 6 6 6 6 6 6 6 2 2 2 2 2 2 2 2 2 2 2 2 6 6 2 2 2 2 2 2 6 2 2 6 c ~ >.9.%.c : * & ",
": : : > 2 2 2 2 6 2 2 6 6 6 6 6 6 6 6 6 6 6 6 6 6 6 6 6 6 6 2 2 2 2 2 2 2 2 2 6 6 6 6 6 6 6 6 2 2 2 2 2 k ~ >.9.>.J 6 : : ",
", , 2 2 2 2 2 2 2 2 6 2 2 2 6 2 2 2 2 2 2 2 2 2 2 2 2 2 2 6 2 2 2 2 2 2 2 2 2 2 2 2 2 6 2 2 6 2 2 2 2 2 i I >.9.>.~ c 4 2 ",
"6 6 2 2 2 2 2 2 2 2 6 6 6 6 6 2 2 2 2 2 2 2 2 2 2 2 2 2 2 6 2 2 2 2 6 2 2 2 2 2 2 2 2 6 2 2 6 2 2 2 2 2 i I &.q.9.%.~ J G ",
"6 6 6 6 2 2 2 2 2 2 2 2 2 2 6 6 6 6 6 6 6 6 6 6 6 6 6 6 6 2 6 6 6 6 2 6 6 6 6 6 6 6 6 2 6 2 6 2 2 2 2 2 i L &.q.i.3.>. . .",
"2 2 2 2 2 2 2 2 2 2 2 2 2 2 6 2 2 2 2 2 2 2 2 2 2 2 2 2 2 6 2 2 2 2 6 2 2 2 6 2 2 2 2 6 6 2 6 2 2 2 2 2 i L %.q.s.i.9.3.3.",
"> > > , , 2 2 2 2 2 2 2 2 2 6 6 6 2 6 6 6 6 6 6 6 6 6 6 6 6 6 6 6 6 6 6 6 6 6 6 6 6 6 6 6 2 6 2 2 2 2 2 i L %.q.i.9.>.%.%.",
"* * : : > , 2 2 2 2 2 2 2 2 2 2 2 6 2 2 2 6 6 6 6 6 6 6 6 6 6 6 6 2 2 2 2 2 2 2 2 2 6 6 6 2 6 2 2 2 2 2 i I &.9.3. .K c c ",
"$ % * - : , 2 2 2 2 2 2 2 2 2 2 2 6 6 6 6 6 6 6 6 6 6 6 6 6 6 2 2 6 6 6 6 6 6 6 6 6 6 6 6 2 6 2 2 2 2 2 i ~ >.3.%.G , : - ",
"# $ & * > 6 4 4 4 4 6 6 2 2 2 2 2 2 2 2 2 6 6 6 6 6 6 6 6 6 6 2 6 2 2 2 2 2 2 2 2 2 6 2 6 2 6 2 2 2 2 2 i ~ >.3.} k : & $ ",
"$ % * : 4 c G G C c i 4 2 2 , 2 2 2 2 2 2 6 6 6 6 6 6 6 6 6 6 2 6 2 2 2 2 2 2 2 2 2 6 6 6 6 6 2 2 2 2 2 i ~ >.3.} k : & $ ",
"* * : 4 G }  . .} ~ G i 6 2 , , 2 2 , 2 2 6 2 2 2 2 2 2 2 2 2 2 6 2 2 , 2 , , , 2 2 6 2 2 2 6 2 2 2 2 2 i ~ >.3.%.G , * * ",
": > 2 C _ >.3.9.3.%.~ c 4 2 , 2 2 2 2 2 2 2 2 2 2 2 2 2 2 2 2 2 2 2 2 2 2 2 2 2 2 2 2 2 2 2 2 2 2 2 2 2 i ~ >.3.*.J 4 : : ",
": > 4 V ~ %.>.2.>. .~ G c i i i i 4 6 2 2 2 2 2 2 2 2 2 2 2 2 2 2 2 2 4 t i t 4 6 2 2 2 2 2 2 2 2 2 2 2 i J  .>.} G 4 > : ",
"; : : 2 k C G G G G J J I I ~ L J V i 2 , , , 2 2 , 2 2 2 2 2 , , 2 6 i G J G c 4 2 , 2 2 2 2 2 2 2 2 2 4 V J ~ J i > : - ",
"& & * * : : : : : , k ~  .>.>.>. .I c 4 , , 2 2 2 2 2 2 2 2 2 2 , 2 4 C ~ } } J i 2 2 2 2 2 2 2 2 2 2 2 6 i c c 4 > * & % ",
"# # # $ $ $ $ $ $ * , J *.9.9.3.>._ G i 6 6 6 6 6 6 2 2 2 2 2 2 2 6 i J } %. .I k 6 , 2 2 2 2 2 2 2 2 2 6 4 i 4 > - & $ # ",
"# # # # # #     # % : i ~ }  .} _ ~ J C V c V c i 4 6 2 2 2 6 4 i c G J ~ ~ I V i 2 2 2 2 2 2 2 2 2 2 2 6 i c i 2 - $ #   ",
"X @ @ O O         $ * : < e e e k m J ~ } } } ~ J c 6 2 , 2 6 k G ~ ~ J c e 4 2 6 2 2 2 2 2 2 2 2 2 2 2 4 V J J k : % #   ",
"@ # # # # @     @ # $ & * * * * : 4 J  .3.9.3.>.) G i 2 , 2 4 c ~  .} G , : - : > 2 6 2 2 2 6 2 2 2 2 2 i J }  .J , & #   ",
"# # # # # # # o # # # # # # # # & : c } >.3.2.%._ J c 4 2 , 2 i L } ~ c : * & * : , 6 6 2 2 6 2 2 2 2 2 i J  . .I , * #   ",
"# # # # # # # # # @ @           # * , c J K K J J K J c 4 > : > 4 c c , : * * ; > 2 6 2 2 2 6 2 2 2 2 2 i G ~ ) C > & #   ",
"# # # # # # # # # @ @           # $ * : : : : , e J _ ~ k : * * * : : : : : : : , 2 6 6 2 2 6 2 2 2 2 2 4 f C C 4 : & #   ",
"# # # # # # # # # # # # # # # # # # $ $ $ $ $ * > G } ~ c : % $ $ % & * : > > , 2 2 2 2 2 6 6 2 2 2 2 2 6 4 t 4 > * $ #   ",
"# @ # # # # # # $ $ $ $ $ $ $ $ $ $ # # X   @ $ - 4 J J e : & # # $ & * : , 2 2 2 2 2 2 2 6 6 2 2 2 2 2 2 2 2 , : * $ #   ",
"# @ # # # # $ % * * * * * * * * * % # #       # & : , 6 , : * * & * * : > 2 6 6 2 2 , 2 2 6 2 2 2 2 2 2 2 2 2 > : * $ # @ ",
"# O   # # # $ * : : : : : : : : : * $ #       # $ & * - : : : : : : : > , 2 2 6 2 2 2 2 2 6 6 2 2 2 2 2 2 2 2 , : * $ # @ ",
"# O   @ # # & * : , 2 , , 2 2 , > ; & $ # # # # # # # % * > 2 6 6 2 , , , 2 2 2 2 2 2 2 2 6 6 2 2 2 2 2 6 4 4 6 > * $ # @ ",
"# @   @ # # & * > 2 6 2 2 2 6 6 , : * & $ $ # #     @ $ ; 4 V C c 4 6 2 2 2 2 2 2 2 2 2 2 6 6 2 2 2 2 2 4 i V c 6 : % #   ",
"# O @ @ # # & * > 2 2 6 6 2 6 6 2 > : - * % $ #     O $ : c ~ ~ J i 6 2 2 2 2 2 2 2 6 6 6 2 6 2 2 2 2 2 e C ~ ~ C > & #   ",
"# #   @ # # & - > 2 6 6 2 2 2 2 2 2 2 > : * $ #     # & , J  . .J i 2 2 2 2 2 2 2 2 2 2 2 2 6 2 2 2 2 2 i J }  .I , * #   ",
"# #     # # * : 6 i i 4 2 2 2 2 6 4 i i 2 : & # # # $ * , V ~ ~ G i 2 2 2 2 2 2 2 6 6 6 6 2 6 2 2 2 2 2 i J }  .J , * #   ",
"# #     # $ * , C J G i 2 2 , , 4 c J L c > * # # $ & * : 4 e i 4 6 2 2 2 2 2 2 6 2 6 6 6 2 6 2 2 , 2 2 i C I I c : & #   ",
"# #     @ $ ; i ~ } ~ c 6 2 , 2 t G ) } I 2 * $ $ * ; : : ; ; : : , 2 2 2 2 2 2 6 6 6 6 6 2 6 2 2 2 2 2 6 i c c 2 : $ #   ",
"# #     @ $ ; k ~  .) G i 6 6 6 k J }  .K , * $ $ * : : : * & * : > 2 2 6 6 6 6 6 6 6 6 6 2 6 2 2 2 2 2 6 6 6 2 : * $ #   ",
"# #     # $ * , m I ~ L G G G G G I ~ I c : & $ & * > > : * & * : > 2 2 6 2 2 6 6 6 6 6 6 2 6 2 2 2 2 2 2 2 2 > : * $ # @ ",
"# #   @ # # % * > 4 C ~ }  .%. .} J c 2 : * $ $ & * > , > : * : : > 2 2 6 6 6 6 6 6 6 6 6 2 6 2 2 2 2 2 2 2 2 > : * $ # @ ",
"# # @ @ # # # $ & ; 4 I >.9.i.3. .G , * $ # # $ & ; > , , > > > , 2 2 2 2 2 2 6 6 6 6 6 6 2 6 2 2 2 2 2 2 6 6 2 : * $ #   ",
"# # # # @ @ @   # & : c } >.2.*.~ e ; $ # # # $ * : > 2 2 2 2 2 2 2 2 2 2 2 2 6 2 2 2 2 2 2 6 2 2 2 2 2 6 4 i 4 > * $ #   ",
"# # # # @       # $ * , c G G m e : & # # # % * : : , 2 6 2 6 2 2 2 2 2 2 2 2 6 6 6 6 6 6 6 6 2 2 2 2 2 4 c C C 4 : & #   ",
"# # # # # # @ X # # $ * ; : : : * & $ # # % * : > > , 2 2 2 2 2 2 2 2 2 2 2 2 2 2 2 2 2 2 2 2 2 2 2 2 2 i G ~ } G > & #   ",
"# # # # # # # . # # # # $ $ $ $ $ # # # $ * : > , 2 2 2 2 2 2 2 2 2 2 2 2 2 2 2 2 2 2 2 2 2 2 2 2 2 , 2 i L  .>.~ 2 * #   ",
"O O O         O   O @ O O       +     # $ * : 2 2 2 2 2 , 2 2 2 2 2 , , 2 2 2 2 2 2 2 2 2 2 2 2 2 , , 2 i ~ >.3._ 4 * #   ",
"            O   O       O O O O O     O $ * : 2 6 2 2 2 2 2 2 2 2 2 2 2 2 2 2 2 2 2 2 2 2 2 2 2 , , , 2 i ~ >.3._ 6 * #   ",
"# # # # # # # # # # # # # O   # @   # # $ * : 2 2 6 2 2 2 2 2 2 2 2 2 2 2 2 2 2 2 2 2 2 2 2 2 2 2 2 2 2 i ~ >.3._ 4 * #   ",
"& & & & & & & & & % $ # # # o # # # $ & * : > 2 4 i i i i i i i i i i i i i i 4 6 6 4 4 i i i i i i i i C ) >.3. .c : & $ ",
", , , , , , , , , : * $ #     # # & ; > , 2 2 6 i V J I ~ I I I I I I ~ ~ L G c t 4 i c J L ~ I I L L ~ ) *.q.i.>.~ k , > ",
"I I I I I ~ ~ ~ I c > * #     # $ ; 6 C J c i t c I } >.>.>.>.>.>.>.>.>.>.%.~ G i i c J } %.>.>.>.>.*.*.>.3.i.s.q.*._ ~ I ",
">.>.>.>.>.>.>.>.*.~ 4 - $ #   # % : c ~ } J i 4 c ~ %.3.3.3.3.3.3.3.3.3.3.>.} J i 4 c ~ >.3.9.3.3.3.3.3.3.3.q.q.3.3.>.>.>.",
"} } } } } } } } _ J 4 : & # # # $ ; e J J c 2 > 2 c I _ _ } _ _ _ _ _ } } ~ J i , , 4 J  .>.*. ._ _ _ _ _ _ _ _ _ _ } } } ",
"4 4 4 4 4 4 4 4 4 2 > : * & $ # $ * : , , : ; * ; > , 4 4 4 4 4 4 4 4 4 4 4 , : - ; > i J I G c e 4 4 4 4 4 4 4 4 4 4 4 4 ",
"* * * * * * * * * * : : : * & $ # $ & * * & $ $ % & * * * * * * * * * * * * & % $ & * > 4 4 , : * * * * * * * * * * * * * ",
"# # # # # # # # # $ * : > : * $ # # # # # # # # # # # # # # # # # # # # # # # # # $ * : > > ; & # # # # # # # # # # # # # ",
"                  # * : > : * $ #                                                 # & = : : * $ #                         "
};
