/* XPM */
static char *_eddcd90ac7c4169d742c7ce98c7d71aOQmIPIe6d9a7EsEm[] = {
/* columns rows colors chars-per-pixel */
"61 64 86 1 ",
"  c #000000",
". c #090606",
"X c #0C0807",
"o c #0B0808",
"O c #120E0D",
"+ c #17100E",
"@ c #171111",
"# c #1B1514",
"$ c #1D1E1E",
"% c #231917",
"& c #221D1C",
"* c #291F1C",
"= c #1F201F",
"- c #20201F",
"; c #1F1F20",
": c #201F20",
"> c #1F2020",
", c #222222",
"< c #292626",
"1 c #2B2827",
"2 c #2E2929",
"3 c #332623",
"4 c #382723",
"5 c #342D2C",
"6 c #382F2F",
"7 c #37302E",
"8 c #38302F",
"9 c #3D3332",
"0 c #462F21",
"q c #592F25",
"w c #4D3324",
"e c #563522",
"r c #593225",
"t c #5D3923",
"y c #55342A",
"u c #5C3A2C",
"i c #423635",
"p c #443837",
"a c #463939",
"s c #4A3C3A",
"d c #533D31",
"f c #633A23",
"g c #6B3C24",
"h c #633A28",
"j c #683B2A",
"k c #743D24",
"l c #7F3F26",
"z c #4E403D",
"x c #504337",
"c c #51413E",
"v c #53433F",
"b c #54433F",
"n c #534340",
"m c #544340",
"M c #574642",
"N c #584642",
"B c #594743",
"V c #5A4843",
"C c #5B4844",
"Z c #5F4B46",
"A c #604B47",
"S c #604C47",
"D c #634F48",
"F c #644F48",
"G c #66504A",
"H c #67504B",
"J c #68524B",
"K c #6A524D",
"L c #6C534E",
"P c #6B544E",
"I c #6C544E",
"U c #6E5550",
"Y c #715751",
"T c #735952",
"R c #755953",
"E c #775C55",
"W c #7A5E57",
"Q c #834321",
"! c #8A4523",
"~ c #914823",
"^ c #AD5226",
"/ c #B05426",
"( c #B85726",
") c #BB5926",
"_ c #61EEE2",
"` c #ECEFEC",
/* pixels */
"WWWWWWWWWTFMsaassZKTUDmcMFTWWWWWEEWWWRKZczMFYWWWWWWWWWWWWWWWW",
"TTTTTTRRTPSmsapasMFLKZcsnSITRRRRRRRRRTKCssmDIRRRTTTTTTTTTTTRT",
"FFFFDFFFFZMzsiiipsNZCcapsbZFJKLIIIIIIKDcsasNGKKGFDFDDDFFDFFFF",
"zsssssssssssai9589psa9959iscMCZAZZZCNMcs99isNVMcssssssssssssz",
"55555555589ip9522255                      5iss#@OO55555555555",
",,<<<<<<<259i952<<<<                      59pi.    <<<121<<,,",
"$$,,<<111589ii952<<1                      59io ``  O255851,$$",
"$$,<2555599ipi995555   eeeeeeeeeeeeeee    9i   ```  #issp7<&$",
"&,<289iiiiippppiiiii   eeeeeeeeeeeeeee       ``````  #NSMp5,$",
"<<259paaaaaaaaaaaaaa   ee((((((((((ee        ```````  *KDs7<,",
"5559iassasa            ee((((((((((f0      ___```````  3Fc952",
"999iaaaasaa             4((((((((((e      _____```````  *Ms99",
"ppaaaaaaaas              (((((((((       _______```````  +ssa",
"ssaaaaaaaasO  ________     ((((((      __________```````  #cm",
"ssssaaaaaaa@  _________               ___________````````  XS",
"aaaaaaaaaaa#  ___________            _____________```````   J",
"iiippaaaaaa#  _____________      _________________```````  %F",
"5599ipaaaapO  _____________________________________``````  @c",
"<1579paaaap   _____________________________________``````  o7",
",<25isssssa   _____________________________________``````   <",
"<159scMMmcs   _____________________________________``````   ,",
"559sMDFFDZM   _____________________________________``````   5",
"9iamSKIUIGC   _____________________________________``````  .9",
"9isnZGKPKFZ   _____________________________________``````   9",
"899azmMMMMN   _____________________________________``````   5",
"225599999pz   _____________________________________``````   <",
",,,<<<<<<5p   ___________              ____________``````   ,",
",,,,,,$$,19   _________                ____________``````   $",
">,>;;$$$$<5   ________    xduhgggftw   ___________```````   $",
">,,,,>$$>,<            eedujkl!~!Qkt   _________`````````   $",
",,,,,,,-,,,           eeey(((((((((ee  ________``````````   $",
",,,,,,,,,>>       O   eeey(((((((((ee   _______`````````   ,$",
",,,,,,,,,>>$$$$$,<5O  eeeq((((/)/((eee   ____``````````   2,$",
",,>,,,,,,,,,,,,,,,<   eeeq((((^)/((eee   ___``````````   7<,$",
",,,,,,,,<<<<<<<<<<,   eeer((((^((((eee    ```````````   95<,$",
",,,,,,<15555555551,   eeer((((^((((eee    ``````````   i95<,>",
",>$,,,<59999999995<   eeer((((^((((eee  @  ````````   pp95<,>",
",>$>,,259pappaapi82   eeer((((^((((eee Oi%  ``````   sssi5<,>",
",,$>,,25iasaaassp95   eeer((((^((((eee .9i   ````   ssncs91,$",
",>>>,,25iaassassai9   eeer(((((((((eee  9ass   `   asmZZmi2,$",
",,$>,,28iassaaaaaaa   eeer((((((^((eee  iaaaa     pasNDGCp5,$",
",,$$,,59ssssaaaasss   eeer((((((^((eee  assssa  9iaasNDFNp5,$",
",,$$,<5pmNMsaappscN   eeee((((((^((eee  aasssaaiipaasmCCc92,$",
",,$$><8sZDZcsapasMA   eeee((((((^((eee  assssasaaaaasscca9<,$",
",,$$><8zZFAMsssszND   eeee((((((^((eee  assssasaaaaasssa95<,$",
",,$$,<5pcCZNMMMMMCZ   eeee((((^((((eee  assssasaaaaaaaai95<,>",
",,$>,,15ismZDFGFDNc   eeee((((^((((eee  aasssasaaaaaaaai95<,>",
",,,,,,,<28sCKUTIFMp   eeee((((^((((eee  aasssasaaaaaassa95<,$",
",,,,,,,=,29cDKPJZs8   eeee((((^((((eee  aaaaaasaaaaassssi5<,$",
",,,,,$$$,<5pcMMbs92   eeee((((^((((eee  assssssaaaaascmms92,$",
",,,,,>,=,,<5899952<   eeee(((((((((eee  paaaaaaaaaaasMZDMi2,$",
",,>;,>>&,,,,<<<<<,,   eeee(((((((((eee  paaaaaaaaapasNFKZa5,$",
";;;$$$$;$;>;;$$$:$$   eeee(((((((((eee  iaaaaaaaappasZKISs5,$",
"$$$$$$;$;$$$;;;;;$$   eeee(((((((((eee  paaaaaaapppasZKISs5,$",
",,,,,,,,,,,,,;$,>$,   eeee(((((((((eee  aaaaaaaasaaasZKISs5,$",
"2222222221<,,,-,,,<   eeee(((((((((eee  ssssssssssssmAKIFc92<",
"ppppppppp95<,$$,,28   eeeeeeeegkggtwee  ssscNNZCCNNZAJYTKZzpi",
"CCCCCZZZCci5,$$,<8s                     sscNDGKKKKJJKITRYJSZC",
"KKKKKKKKJZs7<,$,19c                     sscZKIUIIIIIIIYYIIKKK",
"DDDDDDDDSNs92,,,<8s                     ppsNFKJFSSSSSSSSSSDDD",
"sssssssssai952<,<59pp98589psssssssssspi978isNCMcsssssssssssss",
"555555555599952<,<2552<<1255555555555521<25issp95555555555555",
",,,,,,,,,<59i95<,,,,,,,,,,,,,,,,,,,,,,,,,<59ii82,,,,,,,,,,,,,",
"$$$$$$$$$,59i95<,$$$$$$$$$$$$$$$$$$$$$$$$,26995<,$$$$$$$$$$$$"
};
