/* XPM */
static char *_eb0c457e3b840f4e00bcbf10646213fHjgDAEfVvRC3S6C5[] = {
/* columns rows colors chars-per-pixel */
"64 64 207 2 ",
"   c black",
".  c #212222",
"X  c #212222",
"o  c #212122",
"O  c #202122",
"+  c #202122",
"@  c #212122",
"#  c #212122",
"$  c #212122",
"%  c #212222",
"&  c #212222",
"*  c gray13",
"=  c gray13",
"-  c #202020",
";  c #202020",
":  c #202020",
">  c #202020",
",  c black",
"<  c #232323",
"1  c black",
"2  c black",
"3  c black",
"4  c #232323",
"5  c #333232",
"6  c black",
"7  c black",
"8  c #2F2F2F",
"9  c gray13",
"0  c #464341",
"q  c black",
"w  c #ECEFEC",
"e  c black",
"r  c #333232",
"t  c #181819",
"y  c #563522",
"u  c #292525",
"i  c #3F3B3A",
"p  c black",
"a  c #181819",
"s  c #141415",
"d  c black",
"f  c #292828",
"g  c #232323",
"h  c #B85726",
"j  c black",
"k  c #333232",
"l  c #2D2C2B",
"z  c #603822",
"x  c #462F21",
"c  c #61EEE2",
"v  c black",
"b  c #343332",
"n  c #372622",
"m  c #523322",
"M  c #3D3C3A",
"N  c #1E1E1E",
"B  c black",
"V  c black",
"C  c #2B2B2A",
"Z  c #1E1E1E",
"A  c black",
"S  c black",
"D  c #1E1E1E",
"F  c gray11",
"G  c black",
"H  c black",
"J  c gray11",
"K  c black",
"L  c #212020",
"P  c black",
"I  c black",
"U  c gray11",
"Y  c #212020",
"T  c black",
"R  c black",
"E  c gray11",
"W  c #212020",
"Q  c black",
"!  c gray11",
"~  c #212020",
"^  c black",
"/  c gray11",
"(  c #212020",
")  c gray11",
"_  c #222020",
"`  c #222020",
"'  c black",
"]  c #222020",
"[  c gray11",
"{  c #222020",
"}  c gray11",
"|  c gray11",
" . c #212020",
".. c gray11",
"X. c #212021",
"o. c None",
"O. c gray11",
"+. c #504337",
"@. c #563D30",
"#. c #5C382A",
"$. c #633A28",
"%. c #6A3C26",
"&. c #6F3E25",
"*. c #6A3C24",
"=. c #663B23",
"-. c #5C3823",
";. c #4C3324",
":. c black",
">. c #503C31",
",. c #5C3B2D",
"<. c #683B2A",
"1. c #743B27",
"2. c #7F3F26",
"3. c #894424",
"4. c #914823",
"5. c #8A4622",
"6. c #834321",
"7. c #763F20",
"8. c #5D3721",
"9. c #54362B",
"0. c black",
"q. c gray11",
"w. c gray13",
"e. c black",
"r. c #563228",
"t. c #1E1E1E",
"y. c #212020",
"u. c #212020",
"i. c #211F1F",
"p. c #201E1E",
"a. c #201D1D",
"s. c #1F1C1C",
"d. c #1D1C1C",
"f. c #592F24",
"g. c #B05227",
"h. c #BB5926",
"j. c #B15625",
"k. c #2B2B2A",
"l. c #1E1E1E",
"z. c #1D1C1D",
"x. c #582F25",
"c. c #AE5227",
"v. c #BA5826",
"b. c #B05525",
"n. c #3B3B39",
"m. c #2A2929",
"M. c #1C1D1E",
"N. c #583025",
"B. c #AD5127",
"V. c #333331",
"C. c #583026",
"Z. c #1E1F1F",
"A. c black",
"S. c #222222",
"D. c black",
"F. c #1E1F21",
"G. c #202020",
"H. c #1D1F21",
"J. c #1E1F21",
"K. c #2E2E2D",
"L. c #2F2F2E",
"P. c #AE5525",
"I. c #1D2022",
"U. c gray12",
"Y. c gray12",
"T. c #1D2022",
"R. c #18191A",
"E. c #181818",
"W. c #191919",
"Q. c #191919",
"!. c #1D2021",
"~. c #191919",
"^. c #191919",
"/. c #191919",
"(. c #191919",
"). c #1D2021",
"_. c #1B1B1C",
"`. c #1D2021",
"'. c #1D2021",
"]. c #1D2021",
"[. c #1D2021",
"{. c #1D2021",
"}. c #1D2021",
"|. c #1D2021",
" X c #1D2021",
".X c #1E2021",
"XX c #1E2021",
"oX c #1F2021",
"OX c #6C3B24",
"+X c #723E24",
"@X c #6D3D23",
"#X c #683C23",
"$X c #5E3922",
"%X c #4D3222",
"&X c #202121",
"*X c #202121",
"=X c #202121",
"-X c #212122",
";X c #222222",
":X c #222222",
">X c #222222",
",X c #222222",
"<X c #222222",
"1X c #222222",
"2X c #222222",
"3X c #212122",
"4X c #212122",
/* pixels */
"                                                                                                                                ",
"                                                                                                                                ",
"                                                                                                                                ",
"                                                  . . X X X o O O + @ # $ % & * =           - ; : >                             ",
"                                          , , , , , , , , , , , , , , , , , , , , , ,       < 1 2 3 2 4                         ",
"                                          , , , , , , , , , , , , , , , , , , , , , ,       5 6 , , , 7 8                       ",
"                                  9       , , , , , , , , , , , , , , , , , , , , , ,     0 q , w w , , e r t                   ",
"                                          , , , y y y y y y y y y y y y y y y , , , , u i , , , w w w , , p a s                 ",
"                                          , , , y y y y y y y y y y y y y y y , , , , , , , w w w w w w , , d f g               ",
"                                          , , , y y h h h h h h h h h h y y , , , , , , , , w w w w w w w , , j k l             ",
"                        , , , , , , , , , , , , y y h h h h h h h h h h z x , , , , , , c c c w w w w w w w , , v b             ",
"                        , , , , , , , , , , , , , n h h h h h h h h h h m , , , , , , c c c c c w w w w w w w , , 3 M   N       ",
"                        B , , , , , , , , , , , , , h h h h h h h h h , , , , , , , c c c c c c c w w w w w w w , , V C Z       ",
"                        A , , c c c c c c c c , , , , , h h h h h h , , , , , , c c c c c c c c c c w w w w w w w , , S D F     ",
"                      9 G , , c c c c c c c c c , , , , , , , , , , , , , , , c c c c c c c c c c c w w w w w w w w , , H J     ",
"                      9 K , , c c c c c c c c c c c , , , , , , , , , , , , c c c c c c c c c c c c c w w w w w w w , , , J     ",
"                      L P , , c c c c c c c c c c c c c , , , , , , c c c c c c c c c c c c c c c c c w w w w w w w , , I U     ",
"                      Y T , , c c c c c c c c c c c c c c c c c c c c c c c c c c c c c c c c c c c c c w w w w w w , , R E     ",
"                      W , , , c c c c c c c c c c c c c c c c c c c c c c c c c c c c c c c c c c c c c w w w w w w , , Q !     ",
"                      ~ , , , c c c c c c c c c c c c c c c c c c c c c c c c c c c c c c c c c c c c c w w w w w w , , ^ /     ",
"                      ( , , , c c c c c c c c c c c c c c c c c c c c c c c c c c c c c c c c c c c c c w w w w w w , , B )     ",
"                      _ , , , c c c c c c c c c c c c c c c c c c c c c c c c c c c c c c c c c c c c c w w w w w w , , H J     ",
"                      ` , , , c c c c c c c c c c c c c c c c c c c c c c c c c c c c c c c c c c c c c w w w w w w , , ' J     ",
"                      ] , , , c c c c c c c c c c c c c c c c c c c c c c c c c c c c c c c c c c c c c w w w w w w , , , [     ",
"                      { , , , c c c c c c c c c c c c c c c c c c c c c c c c c c c c c c c c c c c c c w w w w w w , , , }     ",
"                        , , , c c c c c c c c c c c c c c c c c c c c c c c c c c c c c c c c c c c c c w w w w w w , , , |     ",
"                       ., , , c c c c c c c c c c c , , , , , , , , , , , , , , c c c c c c c c c c c c w w w w w w , , , ..    ",
"                      X., , , c c c c c c c c c , , , , , , , , , , , , , , , , c c c c c c c c c c c c w w w w w w , , o.O.    ",
"                        , , , c c c c c c c c , , , , +.@.#.$.%.&.*.=.-.;., , , c c c c c c c c c c c w w w w w w w , , :.O.    ",
"                        , , , , , , , , , , , , y y >.,.<.1.2.3.4.5.6.7.8., , , c c c c c c c c c w w w w w w w w w , , :.O.    ",
"                      9 , , , , , , , , , , , y y y 9.h h h h h h h h h y y , , c c c c c c c c w w w w w w w w w w , , 0.q.    ",
"                      w., , , , o.H e.T , , , y y y r.h h h h h h h h h y y , , , c c c c c c c w w w w w w w w w , , , t.F     ",
"                      9 w.y.u.i.p.a.s.d.I , , y y y f.h h h h g.h.j.h h y y y , , , c c c c w w w w w w w w w w , , , k.l.      ",
"                                      z., , , y y y x.h h h h c.v.b.h h y y y , , , c c c w w w w w w w w w w , , , n.m.        ",
"                                      M., , , y y y N.h h h h B.h h h h y y y , , , , w w w w w w w w w w w , , , V.            ",
"                                        , , , y y y C.h h h h B.h h h h y y y , , , , w w w w w w w w w w , , , Z.              ",
"                                        , , , y y y C.h h h h B.h h h h y y y , , A., , w w w w w w w w , , , S.                ",
"                                        , , , y y y C.h h h h B.h h h h y y y , D.F.p , , w w w w w w , , , G.                  ",
"                                        , , , y y y C.h h h h B.h h h h y y y , ^ H.J., , , w w w w , , , K.                    ",
"                                        , , , y y y C.h h h h h h h h h y y y , :.H.      , , , w , , , L.                      ",
"                                        , , , y y y C.h h h h h h P.h h y y y , , I.      U., , , , , Y.                        ",
"                                        , , , y y y C.h h h h h h P.h h y y y , , T.      R.E., , W.Q.                          ",
"                                        , , , y y y y h h h h h h P.h h y y y , , !.          ~.^./.(.                          ",
"                                        , , , y y y y h h h h h h P.h h y y y , , ).            _.                              ",
"                                        , , , y y y y h h h h h h P.h h y y y , , `.                                            ",
"                                        , , , y y y y h h h h B.h h h h y y y , , '.                                            ",
"                                        , , , y y y y h h h h B.h h h h y y y , , ].                                            ",
"                                        , , , y y y y h h h h B.h h h h y y y , , [.                                            ",
"                                        , , , y y y y h h h h B.h h h h y y y , , `.                                            ",
"                                        , , , y y y y h h h h B.h h h h y y y , , {.                                            ",
"                                        , , , y y y y h h h h h h h h h y y y , , }.                                            ",
"                                        , , , y y y y h h h h h h h h h y y y , , |.                                            ",
"                                        , , , y y y y h h h h h h h h h y y y , ,  X                                            ",
"                                        , , , y y y y h h h h h h h h h y y y , , .X                                            ",
"                                        , , , y y y y h h h h h h h h h y y y , , XX                                            ",
"                                        , , , y y y y h h h h h h h h h y y y , , oX                                            ",
"                                        , , , y y y y y y y y OX+X@X#X$X%Xy y , , &X                                            ",
"                                        , , , , , , , , , , , , , , , , , , , , , *X                                            ",
"                                        , , , , , , , , , , , , , , , , , , , , , =X                                            ",
"                                        , , , , , , , , , , , , , , , , , , , , , -X                                            ",
"                                              ;X:X>X,X<X1X1X1X<X1X1X1X1X1X,X2X3X4X                                              ",
"                                                                                                                                ",
"                                                                                                                                ",
"                                                                                                                                "
};
