/* XPM */
static char *a9da44fb2b434d9be1607a9156776bc1arzJqyuRmNC50NVb[] = {
/* columns rows colors chars-per-pixel */
"64 64 150 2 ",
"   c #010101",
".  c #080707",
"X  c #090807",
"o  c #070808",
"O  c #0C0B0B",
"+  c #110D0D",
"@  c #14110F",
"#  c #141212",
"$  c #1A1514",
"%  c #1D1817",
"&  c #1E1E1E",
"*  c #231D1B",
"=  c #281F1D",
"-  c #27201E",
";  c #2A211E",
":  c #1E1F20",
">  c #1F2020",
",  c #232323",
"<  c #2B2524",
"1  c #2B2827",
"2  c #2E2A29",
"3  c #312724",
"4  c #322927",
"5  c #332C2C",
"6  c #3A2E2B",
"7  c #3B312F",
"8  c #3B3231",
"9  c #41322F",
"0  c #423635",
"q  c #453837",
"w  c #4A3A36",
"e  c #463938",
"r  c #4B3D3B",
"t  c #513E3A",
"y  c #4F413D",
"u  c #52413E",
"i  c #534240",
"p  c #544340",
"a  c #554341",
"s  c #554441",
"d  c #554541",
"f  c #564441",
"g  c #564541",
"h  c #564442",
"j  c #564542",
"k  c #574542",
"l  c #554441",
"z  c #594541",
"x  c #594641",
"c  c #5A4641",
"v  c #584542",
"b  c #584642",
"n  c #584643",
"m  c #594643",
"M  c #594743",
"N  c #5B4642",
"B  c #5A4742",
"V  c #5A4744",
"C  c #594643",
"Z  c #5B4843",
"A  c #5B4944",
"S  c #5D4844",
"D  c #5C4945",
"F  c #5D4945",
"G  c #5C4A45",
"H  c #5D4A45",
"J  c #5E4A46",
"K  c #5E4B46",
"L  c #5C4945",
"P  c #614B46",
"I  c #604B47",
"U  c #604C47",
"Y  c #604C47",
"T  c #614D48",
"R  c #624D48",
"E  c #634D48",
"W  c #634D49",
"Q  c #634E49",
"!  c #644E49",
"~  c #644F49",
"^  c #654F49",
"/  c #644E4A",
"(  c #644F4A",
")  c #654F4A",
"_  c #654F4B",
"`  c #634E49",
"'  c #65504A",
"]  c #66504B",
"[  c #67504B",
"{  c #67514B",
"}  c #67504C",
"|  c #67514C",
" . c #66504B",
".. c #68514C",
"X. c #68524C",
"o. c #69524D",
"O. c #6A524D",
"+. c #6A534D",
"@. c #6A534E",
"#. c #6B534E",
"$. c #6A544E",
"%. c #6B544E",
"&. c #6C544E",
"*. c #6C544F",
"=. c #6D554F",
"-. c #6E564F",
";. c #6A534D",
":. c #6E5550",
">. c #6E5650",
",. c #6F5650",
"<. c #6F5750",
"1. c #6F5651",
"2. c #6F5751",
"3. c #6F5650",
"4. c #705650",
"5. c #705651",
"6. c #705751",
"7. c #715751",
"8. c #705751",
"9. c #715851",
"0. c #715852",
"q. c #725852",
"w. c #725952",
"e. c #735952",
"r. c #735853",
"t. c #725953",
"y. c #735953",
"u. c #735A53",
"i. c #745953",
"p. c #745A53",
"a. c #745954",
"s. c #745A54",
"d. c #755A54",
"f. c #755B54",
"g. c #765B54",
"h. c #765C55",
"j. c #775C55",
"k. c #745953",
"l. c #785C55",
"z. c #785C56",
"x. c #785D56",
"c. c #795D56",
"v. c #795E56",
"b. c #795E57",
"n. c #7A5E56",
"m. c #7A5E57",
"M. c #7B5F57",
"N. c #795E56",
"B. c #7B5F58",
"V. c #7C5F58",
/* pixels */
", , , , > > > & & , , 0 q q q 0 2 , , & & > > > , , > & & , , 2 8 0 e q q q q q q q q 8 2 , 2 q q q q 0 2 , , & : > > : & & & & ",
", , , , , , , , , , 2 q q q q q 5 , , , , , , , , , , , , , , 5 8 0 q q q q q q q q q 0 2 , 5 q q q q q 5 , , , , , , , , , , , ",
", , , , , , , , , 2 8 q q q q q 5 1 , , , , , , , , , , , , 1 5 8 q q q q q q q q q q q 5 2 8 q q q q q 8 1 , , , , 1 1 1 2 2 2 ",
", , , , 1 2 2 5 8 q q q q q q 0 8 5 2 2 2 2 2 2 2 2 2 2 2 2 5 8 0 q q q q q e q q q q q 8 0 q q q q q q q 5 2 5 5 5 5 5 8 8 8 0 ",
"> , , 1 2 5 8 0 q q q q q q q q 8 8 8 8 8 8 8 8 8 8 8 8 8 8 8 8 0 q q q q q e e q q q q q q q q q q q q q 0 0 q q 0 8 q w u s M ",
", , , 2 5 0 q q q q q q q q q e q q 0 0 0 0 0 0 0 0 0 0 0 0 q q q q q q q e e e q q q q q q q q q q q q q q q q q q q u S ] ..=.",
", , 1 5 0 q q q q q q q q q e e e e e e e e e e e e e e e e e e q q q q q e e e q q q q q q q q q q q q q q q q q q q s ] 6.d.M.",
"2 5 8 q q q q q q q q q q q q e e e e e e e e e q q q q q q q q q q q q e e e e e q q q q q q e e e q q q q q q q q q s ..y.M.V.",
"8 0 q q q q q q q q q q q q q q q q q q q q q q q q q q q q q q q q q q e e e e e e e e e e e e e e e q q q q q q q q a ..y.M.M.",
"q q q q q q q q q q q q q q q q q q q q q q q q q q q q q q q q q q q q q q q q q e e e e e e e e e e e q q q q q q q u ] 6.j.M.",
"q q q q q q q q q q q q q q q q q q q q q q q q q q q q q q q q q q q q q q q q q q q q q q q q q q e e e e e q q q q u ] 6.d.M.",
"q q q q q q q q q q q q q q q q q q q q q q q q q q q q q q q q q q q q q q q q q q q q q q q q q q q q e e e q q q q u ] 6.d.M.",
"q q q q q q q q q q e e e q q q q q q q q q q q q q q q q q q q q q q q q q q q q q e w r e q q q q q q q e e q q q q u ] 6.d.M.",
"q q q q e e e e e e e e e e q q q q q q q q q q q q q q q q r s M M s a a s M S P Q ..,.6.,...M r e e q q q q q q q q u ] 6.d.M.",
"q q q q q e e e e e e e e q q e r r u M U / ] } } } } ] / ] ,.6.6.6.6.6.6.6.6.6.6.6.6.6.6.6.6.6.6.=.} S u e q q q q q r ] 6.d.M.",
"q q q q q e e e e q q q q e u Q =.,.6.6.6.6.6.6.6.6.6.6.6.6.6.6.6.6.6.6.6.6.6.6.6.6.6.6.6.6.6.6.6.6.6.6.,.] u e q q q w ] 6.d.M.",
"q q q q q q q q e q q q w ] ,.6.6.6.6.6.6.6.6.6.6.6.6.6.6.6.6.6.6.6.6.6.6.6.6.6.6.6.6.6.6.6.6.6.6.6.6.6.6.6.,.M q q q e / 6.d.M.",
"q q q q q q q q q q q e P 6.6.6.6.6.6.6.6.6.6.6.6.6.6.6.6.6.6.6.6.6.6.6.6.6.6.6.6.6.6.6.6.6.6.6.6.6.6.6.6.6.6.,.Q e q e Q 6.d.M.",
"q q q q q q q q q q q w ..6.6.6.6.6.6.6.6.6.6.6.6.6.6.6.6.6.6.6.6.6.6.6.6.6.6.6.6.y.y.6.6.6.6.6.6.6.6.6.6.6.6.6.6...r e Q 6.d.M.",
"q q q q q q q q q q i ..6.6.6.6.6./ u Q y.i.i.i.6.S M P ..6.y.y.6.6.6.6.6.6.6.6.y.d.M.j.i.y.y.6.6.6.6.6.6.6.6.6.6.6.,.M ] y.j.M.",
"q q q q q q q q u ..6.6.6.6.6.6.M O   * 6.d.y.d.M .       $ u y.y.y.i.y./ M Z ] y.d.d.M.B.M.M.y.6.6.6.6.6.6.6.6.6.6.6.,.%.i.d.M.",
"q q q q q q r Q ,.6.6.6.6.6.6.,.< . . $ y.y.y.i.w   O O     , ,.y.,.d.,.<     6 ,.d.d.M.M.j.d.i.y.y.6.6.6.6.6.6.6.6.6.6.,.d.d.M.",
"q q q q e V ,.6.6.6.6.6.6.6.,.q . X . ; y.y.6.i.w   .       O =.6.] i...O     % 6.d.d.d.i.,.=.,.y.d.d.i.y.,.6.6.6.6.6.6.,.d.d.y.",
"0 q q e Q 6.6.6.6.6.6.6.6...w O   .   3 y.y.6.i.w           . ..y.%.y.S .     # ,.d.d.i.y.Q S / =.d.d.,.] S A ..6.6.6.6.y.d.d...",
"1 5 8 S 6.6.6.6.6.6.6.,.S 3 X   X     * y.y.y.i.w       .     M y.y.=.<   X   # =.d.d.d.] 0 q s ] y.y.M 5 * - 0 S =.,.,.y.d.d.6.",
". . * ..6.6.6.6.6.y.,.S 4 .   .       + 6.i.y.i.s .     o     + 6 9 %   . #   $ %.d.d.y.6 . + 0 S =.=.<       . 0 ] ../ =.d.i.y.",
"    O u 6.6.6.6.i.d.%.M #   X         X ] d.i.y.7       X   . .         X #   $ =.d.d.6.O     % u U U $   .     $ U ] Q S y.d.y.",
"  .   $ M =.=.,.y.i.=.M O . .         . w ....0 X       .                 O   $ =.d.d.,.X .   . 8 y y O           O 5 A A ] d.d.",
"  X     O * r Z ..y.=.s X X .           X O     .                         O   $ ,.d.d.,.X .     X 2 7 X         .   O y S ..,.i.",
"  .         5 r S =...w . X     . .                     .                     # 6.d.d.,.O .         .           . X   $ w y.i.y.",
"  .         X 7 u U U 4   O     # .                   O # .                     ..d.d.,.O . .     .       .             * =.6.6.",
".             O q y u #   @     O                                               N d.d...O . .     X   . X .   .     . . @ ..6.6.",
".       # .       O # . . .                                                 O   t y./ < . . .                 .         + ..6.6.",
".     .   .             .                                                   O O $ 9 #     O .               . .     X   O ..6.6.",
"        .                 .                                                   . .                     . X .     .   X   O ..6.6.",
"; q w 3 O .                                                                                       . X .     X # X       @ =.6.6.",
"=.6.6.,./ 3 X   . O                                                                             . .     X X .         . q 6.6.6.",
"6.6.6.6.6.,.M *     . O                                                       . .                 . X X .     . .   + u ,.6.6.6.",
"6.6.6.6.6.6.6...*     . # X                                                                   . O O .     O # X X 3 ] 6.6.6.6.6.",
"S ,.6.6.6.6.6.6.,.9 .                                                                     X .         .   # . # u ,.6.6.6.6.6.6.",
"e r S =.6.6.6.6.6.6.w +                                                                                   O ; ..6.6.6.6.6.6.6.y.",
"q q q u ,.6.6.6.6.6.6.,.S =                                                                     X O X X O < ..6.6.6.6.6.6.y.i.d.",
"q q q q ] 6.6.6.6.6.6.6.6.=.3 .                                                               X . . .   X S 6.6.6.6.6.6.y.d.d.d.",
"q q q q u =.6.6.6.6.6.6.6.6.,.Q 0 @ .                                                       .     $ 4 < 0 ,.6.6.6.6.6.,.=.......",
"q q q q e s ] ,.6.6.6.6.6.6.6.6.6.,.S * X . . . . . .                                     .     0 =.6.,.6.6.6.6.6...S A M A V V ",
"q q q q e r u S =.6.6.6.6.6.6.6.6.6.6.,.u < O   . .                             . . . . O .   4 ,.6.6.6.6.6.6.6.,.s r e e e e r ",
"q q q q q q r M Q =.6.6.6.6.6.6.6.6.6.6.6.,.Q 0 * $ $ O                                 X * u ,.6.6.6.6.6.6.6.6./ r q q q q q q ",
"q q q q q q q u S / ..=.....6.6.6.6.6.6.6.6.,.,.,.,.=.Q 0 - - - - - * $ $ $ $ $ $ - 6 w / ,.6.6.6.6.6.6.6.6.6.=.i q q q q q q q ",
"q q q q q q q e a M A r e q u ] ,.6.6.6.6.6.6.6.6.6.6.6.6.y.y.y.y.y.y.6.,.=...] ..,.6.6.6.6.6.6.6.6.6.6.6.6...r q q q q q q q q ",
"e q q q q q q q r r r q q q q q e M } ,.6.6.6.6.6.6.6.6.6.y.y.y.y.y.y.i.i.d.d.i.6.6.6.6.6.6.6.6.6.6.6.6.,.P e q q q q q q q q q ",
"..Q Q e q q q q e e e q q q q q q q q r S ..,.6.6.6.6.6.6.6.6.6.6.6.6.6.6.y.y.y.6.6.6.6.6.6.6.6.6.6.,./ u e q q q q q q q q q u ",
",.d.d.s q q q q e e e q q q q q q q q q q e r V Q ] / Q ] ......................,.6.6.6.6.6.6.6.,./ r q q q q q q q q q q q q A ",
",.d.i.Q q q q q e e e q q q q q q q q q q q q q q q q q r V A A A A A A A A A S Q ..,.,.,.=...K i r e q q q q q q q e q q q q M ",
"6.d.y.,.e q q q q e e e q q q q q q q q q q q q q q q q q r r r r r r r r r r r r r r r r r r r r e e q q q q q q q q q q q q s ",
"i.d.y.y.s q q q q q q q q q q q e e e e e q q q q q q q q e e e e e q q q q q q q q q q q q q q q e q q q q q q q q q q q q q s ",
"i.d.y.i.=.e q q q q q q q q q q e e e e e e e e q q q q q q q q q q q q q q q q q q q q q q q q q q q q q q q q q q q q q q q U ",
"i.d.y.y.d.S q q q q q q q q q q q e e e e e e e e q q q q q q q q q q q q q q q q q q q q q q q q q q q q q q q q q q q q e u y.",
"i.d.y.y.d.6.r q q q q q q q q q q e e e a / / u e q q q q q q q q q q q q q q q q q q q q q q q q q q q q e e e e e r Q / } i.M.",
"d.d.y.y.d.y.,.w q q q q q q q q q e e S 6.y.y.#.r q q q q q q q q q q e e e e e e e e e e q q q q q q q e r r r r r a ,.i.y.d.M.",
"i.d.d.y.y.i.d.6.V u u q q q q q q e u y.d.,.6.y.r q q q q q q e s / ..,.,.,.,.=...Q M i r e q q q q q e M V A A V S Q y.i.y.d.M.",
"y.d.d.d.6.,.i.d.d.y.,.e q q q q q e S i.d.d.y.,.e q q q q e S ,.i.y.y.y.y.y.y.i.d.i.y./ u e q q q q q Q y.y.y.y.y.y.i.d.i.i.d.j.",
"y.d.d.d.y.,.6.y.d.d.y.s q q q q q e Q i.6.i.i...q q q q q S d.i.y.6.6.6.6.6.6.y.y.i.i.y.S e q q q q r y.d.d.i.i.i.i.i.i.i.d.d.j.",
"d.d.d.d.d.d.d.j.M.d.d.=.e q q q q e ..y.=.y.i.Q q q q q e ,.d.M.j.d.d.d.d.d.d.j.M.d.y.i...e q q q q ..d.d.d.d.d.d.d.d.d.d.d.d.d.",
"M.M.M.M.j.M.M.M.M.M.y.=.u q q q q r 6.y...y.d.Q q q q q w a.d.M.M.M.M.M.M.M.M.M.M.M.y.y.6.r q q q s d.d.d.j.d.d.d.d.d.d.d.d.d.d."
};
