/* XPM */
static char *_27a8f138fd34ea0b6918f25b1d46ca7VpRZmDrxdnDQJ6h9[] = {
/* columns rows colors chars-per-pixel */
"51 64 222 2 ",
"   c black",
".  c #222222",
"X  c black",
"o  c #40853E",
"O  c #1F1A1E",
"+  c #222222",
"@  c #1B1F21",
"#  c #316335",
"$  c #335D54",
"%  c None",
"&  c #342821",
"*  c #342822",
"=  c #342822",
"-  c #342822",
";  c #603923",
":  c #674024",
">  c #6E4625",
",  c #714926",
"<  c #6E4424",
"1  c #AB5624",
"2  c #F8902F",
"3  c #E17D2B",
"4  c gray13",
"5  c #001521",
"6  c #000A20",
"7  c #653C23",
"8  c #8A4C24",
"9  c #ED862C",
"0  c #954F24",
"q  c #B25F26",
"w  c #DF792A",
"e  c #E5802C",
"r  c #EA862D",
"t  c #EC882D",
"y  c #EA842C",
"u  c #E17C2A",
"i  c #D27229",
"p  c #ED892D",
"a  c #F18B2E",
"s  c #ED872D",
"d  c #D97C2B",
"f  c #EE892D",
"g  c #F58E2E",
"h  c #F48D2E",
"j  c #DD812D",
"k  c #C96827",
"l  c #EE8A2D",
"z  c #F68F2E",
"x  c #DD822D",
"c  c #B25B25",
"v  c #F68E2E",
"b  c #9D5124",
"n  c #222222",
"m  c #F48E2E",
"M  c #F38D2E",
"N  c #DF822D",
"B  c #F28D2E",
"V  c #E4852D",
"C  c #C3752B",
"Z  c #9A5F29",
"A  c #7A4E27",
"S  c #6C4425",
"D  c #683F24",
"F  c #683E23",
"G  c #6A3F24",
"H  c #6E4425",
"J  c #724A26",
"K  c #6E4926",
"L  c #704A26",
"P  c #835327",
"I  c #A9672A",
"U  c #F18C2E",
"Y  c #F08C2E",
"T  c #EA882D",
"R  c #DB812D",
"E  c #C9772C",
"W  c #B86E2A",
"Q  c #AD6328",
"!  c #A45926",
"~  c #A05425",
"^  c #A25725",
"/  c #AA6027",
"(  c #B36929",
")  c #B66E2A",
"_  c #B76E2A",
"`  c #C0722B",
"'  c #D17C2C",
"]  c #EE8A2E",
"[  c #EA872D",
"{  c #E8872D",
"}  c #E3832D",
"|  c #D5772A",
" . c #C36827",
".. c #B85E25",
"X. c #BD6226",
"o. c #CE7129",
"O. c #DE7F2C",
"+. c #E3842D",
"@. c #DF832D",
"#. c #D97F2C",
"$. c #DA802C",
"%. c #E2842D",
"&. c #EB872D",
"*. c #E9852C",
"=. c #E37F2B",
"-. c #E27D2B",
";. c #E9832C",
":. c #F1892D",
">. c #B56327",
",. c #9F5525",
"<. c #AA5C26",
"1. c #CC7229",
"2. c #EB862D",
"3. c #EC892D",
"4. c #D67E2C",
"5. c #BE712B",
"6. c #BA6F2B",
"7. c #CE7A2C",
"8. c #B56929",
"9. c #E2832D",
"0. c #B26C2A",
"q. c #E8842C",
"w. c #955C28",
"e. c #CA772B",
"r. c #C4752B",
"t. c #8B5728",
"y. c #714A26",
"u. c #9F6229",
"i. c #995F29",
"p. c #674526",
"a. c #382A22",
"s. c #E7832C",
"d. c #E37E2B",
"f. c #E07829",
"g. c #DE7729",
"h. c #DE792A",
"j. c #312A23",
"k. c #714023",
"l. c #7D4423",
"z. c #7C4423",
"x. c #161D21",
"c. c #E27C2B",
"v. c #CC782C",
"b. c #A16229",
"n. c #473524",
"m. c #252322",
"M. c #131C21",
"N. c #EA852C",
"B. c #E9842C",
"V. c #EE872D",
"C. c #F38B2D",
"Z. c #C3732B",
"A. c #654125",
"S. c #7F4724",
"D. c #734023",
"F. c #784123",
"G. c #0B1921",
"H. c #7D4624",
"J. c #6A3C23",
"K. c #5D3823",
"L. c #8D4B24",
"P. c #AE5724",
"I. c #B75A24",
"U. c #B55924",
"Y. c #B55B25",
"T. c #BE6527",
"R. c #CA7229",
"E. c #D2792B",
"W. c #CE752A",
"Q. c #C36B28",
"!. c #CF772B",
"~. c #CB732A",
"^. c #5B3722",
"/. c #1E2021",
"(. c #442E22",
"). c #653B22",
"_. c #834623",
"`. c #814522",
"'. c #814723",
"]. c #884E24",
"[. c #915726",
"{. c #975D28",
"}. c #965B27",
"|. c #915426",
" X c #975C27",
".X c #985D28",
"XX c #925626",
"oX c #955927",
"OX c #975A27",
"+X c #925325",
"@X c #854A23",
"#X c #6A3D22",
"$X c #462F22",
"%X c #171D21",
"&X c #1C2021",
"*X c gray13",
"=X c #5F242D",
"-X c #212221",
";X c #202221",
":X c #1F2121",
">X c #1E2121",
",X c #8A3C29",
"<X c #7B332B",
"1X c #82352C",
"2X c #80342B",
"3X c #7E342B",
"4X c #1D2121",
"5X c #1D2021",
"6X c #1D2021",
"7X c #1D2021",
"8X c #1D2121",
"9X c #3E2824",
"0X c #1E2121",
"qX c #1F2121",
"wX c #1F2221",
"eX c #272123",
"rX c #202221",
"tX c #1C2220",
"yX c #1E2221",
"uX c #242222",
"iX c #1F2121",
"pX c #1E2121",
/* pixels */
"                                                                                                      ",
"                            .                                                                         ",
"                                                                                                      ",
"                              X X X X X X X X X X X X X X                                             ",
"                              X X X X X X X X X X X X X X         .                                   ",
"                              X X X o o o o o o o o o o X X X X O +                                   ",
"                              X X X o o o o o o o o o o X X X X                                       ",
"                              X X X o o o o o o o o o o o o X X                                       ",
"                              X X X o o o o o o o o o o o o X X               @                       ",
"                        X X X X X X o o # $ $ $ $ $ $ $ o o X X X X X X X X X                         ",
"                        X X X X X X X $ $ $ $ $ $ $ $ $ $ $ $ X X X X X X X X                         ",
"                  X X X X X X X X X X $ $ $ $ $ $ $ $ $ $ $ $ % & * = = - X X                         ",
"                  X X X X X ; : > , < 1 1 1 1 1 1 1 2 2 2 3 3 1 1 1 2 3 3 X X X X X                   ",
"              X X X X X X 3 3 3 3 3 3 1 1 1 1 1 1 1 2 2 2 3 3 1 1 1 2 3 3 X X X X X                   ",
"        4 5 6 X X X X X X 3 3 3 3 3 3 1 1 1 1 1 1 1 2 2 2 3 3 1 1 1 2 3 3 2 2 X X X X X X   4         ",
"            X X X X X 7 8 3 3 3 3 3 9 1 1 1 1 1 1 1 2 2 2 3 3 1 1 1 2 3 3 2 2 X X X X X X             ",
"            X X X X X 0 q 3 3 3 3 3 3 3 3 3 1 1 1 1 2 2 2 3 3 1 1 1 2 3 3 2 2 X X X X X X             ",
"            X X X 2 2 3 3 3 3 3 3 3 3 3 3 3 1 1 1 1 2 2 2 3 3 1 1 1 2 3 3 3 2 2 2 2 X X X X X     .   ",
"        X X X X X 2 2 3 3 3 3 3 3 3 3 3 3 3 1 1 1 1 2 2 2 3 3 1 1 1 2 2 3 3 2 2 2 2 X X X X X         ",
"        X X X X X 2 2 w 3 3 3 3 3 3 3 3 3 3 1 1 1 1 2 2 2 3 3 1 1 1 2 2 3 3 2 2 2 2 2 2 2 X X X       ",
"        X X 1 1 1 2 2 e 3 3 3 3 3 3 3 3 3 3 1 1 1 1 2 2 2 3 3 1 1 1 2 2 3 3 2 2 2 2 2 2 2 X X X       ",
"        X X 1 1 1 2 2 r 3 3 3 3 3 3 3 3 3 3 1 1 1 1 2 2 2 3 3 1 1 1 2 2 3 3 2 2 2 2 2 2 2 X X X       ",
"        X X 1 1 1 2 2 t y u i X X X X X X X X X X X 2 2 2 3 3 3 3 3 2 2 3 3 2 X X X X X X X X X       ",
"        X X 1 1 1 2 2 p a s d X X X X X X X X X X X 2 2 2 3 3 3 3 3 2 2 3 3 2 X X X X X X X X X       ",
"        X X 1 1 1 2 2 f g h j X X X X X X X X X X X 2 2 2 2 2 2 3 3 k X X X X X X X X X X X X X       ",
"        X X 1 1 1 2 2 l z g x X X X X X X X X X X X X X X 2 2 2 3 3 c X X X X X X X X X X X X X       ",
"        X X 1 1 1 2 2 f v h j X X X X X X X X X X X X X X 2 2 2 3 3 b X X X X X X X X X X X X X n     ",
"        X X 1 1 1 2 2 f m M N X X X X X X X X X X X X X X 2 2 2 3 3 1 X X X X X X X X X X X X X       ",
"        X X 1 1 1 2 2 f M B V C Z A S D F G H , J K L P I 2 2 2 3 3 1 2 2 2 2 2 2 2 2 2 2 2 X X       ",
"        X X 1 1 1 2 2 p U Y T R E W Q ! ~ ^ / ( ) ) _ ` ' 2 2 2 3 3 1 2 2 2 2 2 2 2 2 2 2 2 X X       ",
"        X X 1 1 1 2 2 p ] t [ [ { } |  ...X.o.O.+.@.#.$.%.2 2 2 3 3 1 2 2 2 2 2 2 2 2 2 2 2 X X       ",
"        X X 1 1 1 2 2 &.*.=.-.;.:.3 3 >.,.<.1.2.3.4.5.6.7.2 2 2 3 3 1 2 2 2 2 2 2 2 2 2 2 2 X X       ",
"        X X 1 1 1 2 2 r 1 1 1 3 3 3 3 X X X 8.9.N 0.X X X 2 2 2 X X X 2 2 2 2 2 2 2 2 2 2 2 X X       ",
"        X X 1 1 1 2 2 q.1 1 1 3 3 3 3 X X X w.e.r.t.X X X 2 2 2 X X X 2 2 2 2 X X X X X X X X X       ",
"        X X 1 1 1 2 2 q.1 1 1 3 3 3 3 X X X y.u.i.p.X X X 2 2 2 X X X 2 2 2 2 X X X X X X X X X       ",
"        X X 1 1 1 3 3 *.1 1 1 3 3 3 3 X X X X X X X X X X X X X X X X 2 2 2 2 X X X 1 1 1 a.X X       ",
"        X X 1 1 1 3 3 s.1 1 1 3 3 3 3 X X X X X X X X X X X X X X X X X X X X X X X 1 1 1 X X X       ",
"        X X 1 1 1 3 3 d.1 1 1 3 3 3 3 X X X X X X X X X X X X X X X X X X X X X X X 1 1 1 X X X       ",
"        X X X 1 1 3 3 3 f.g.h.3 3 3 3 3 w.K X X X 3 3 3 3 j.X X 3 3 3 3 X X X k.l.z.1 1 X X X X x.    ",
"        X X X X X 3 3 3 3 c.s.&.p 3 3 3 v.b.X X X 3 3 3 3 n.X X 3 3 3 3 X X X 3 3 3 1 1 X X m.M.      ",
"          X X X X X X 3 3 3 3 N.B.q.V.C.T Z.X X X 3 3 3 3 A.X X 3 3 3 3 X X X 3 3 3 X X X X           ",
"              X X X X 3 3 3 3 3 3 3 3 3 3 3 1 1 1 3 3 3 3 1 1 1 3 3 3 3 S.D.F.X X X X X X G.          ",
"              X X X X X H.3 3 3 3 3 3 3 3 3 1 1 1 3 3 3 3 1 1 1 3 3 3 3 3 3 J.X X X X X X             ",
"        .           X X K.L.P.I.U.Y.T.R.E.W.1 1 1 Q.!.3 3 1 1 1 ~.3 3 3 3 3 ^.X X X /.                ",
"                    X X (.).l._.`.'.].[.{.}.1 1 1 |. X.XXX1 1 1 oX.XOX+X@X#X$XX X X %X                ",
"                    X X X X X X X X X X X X X X X X X X X X X X X X X X X X X X X X &X                ",
"                    X X X X X X X X X X X X X X X X X X X X X X X X X X X X X X X X *X                ",
"                    X X =X=X=X=X=X=X=X=X=X=X=X=X=X=X=X=X=X=X=X=X=X=X=X=X=X=X=X=XX X -X                ",
"                    X X =X=X=X=X=X=X=X=X=X=X=X=X=X=X=X=X=X=X=X=X=X=X=X=X=X=X=X=XX X ;X                ",
"                    X X =X=X=X=X=X=X=X=X=X=X=X=X=X=X=X=X=X=X=X=X=X=X=X=X=X=X=X=XX X :X                ",
"                    X X =X=X=X=X=X=X=X=X=X=X=X=X=X=X=X=X=X=X=X=X=X=X=X=X=X=X=X=XX X >X                ",
"                    X X ,X,X<X1X2X3X3X3X3X3X3X3X3X3X3X3X3X3X3X3X3X3X,X,X,X,X,X,XX X 4X                ",
"                    X X ,X,X,X,X,X,X,X,X,X,X,X,X,X,X,X,X,X,X,X,X,X,X,X,X,X,X,X,XX X 5X                ",
"                    X X ,X,X,X,X,X,X,X,X,X,X,X,X,X,X,X,X,X,X,X,X,X,X,X,X,X,X,X,XX X 6X                ",
"                    X X ,X,X,X,X,X,X,X,X,X,X,X,X,X,X,X,X,X,X,X,X,X,X,X,X,X,X,X,XX X 7X                ",
"                    X X ,X,X,X,X,X,X,X,X,X,X,X,X,X,X,X,X,X,X,X,X,X,X,X,X,X,X,X,XX X 5X                ",
"                    X X =X=X=X=X=X=X=X=X=X=X=X=X=X=X=X=X=X=X=X=X=X=X=X=X=X=X=X=XX X 5X                ",
"                    X X =X=X=X=X=X=X=X=X=X=X=X=X=X=X=X=X=X=X=X=X=X=X=X=X=X=X=X=XX X 8X                ",
"                    X X =X=X=X=X=X=X=XX X X X X X X X X X X 9X=X=X=X=X=X=X=X=X=XX X 0X                ",
"                    X X =X=X=X=X=XX X X X X X X X X X X X X X =X=X=X=X=X=X=X=X=XX X qX                ",
"                    X X =X=X=X=X=XX X                     X X =X=X=X=X=XX X X X X X wX                ",
"                    X X =X=X=X=X=XX X                     X X =X=X=X=X=XX X X eXrXtXyX                ",
"                    X X =X=X=X=X=XX X                     X X =X=X=X=X=XX X X uXiX                    ",
"                    X X X X X X X X X                     X X X X X X X X X X pX                      "
};
