/* XPM */
static char *da7204f9fc3e4c27dc1e528af62c4b27HbBrnUje1hH2hsN2[] = {
/* columns rows colors chars-per-pixel */
"61 64 113 2 ",
"   c black",
".  c #1D1E1E",
"X  c #201F1F",
"o  c #1F201F",
"O  c #20201F",
"+  c #1F1F20",
"@  c #1F2020",
"#  c #222221",
"$  c #292626",
"%  c #2B2827",
"&  c #2E2929",
"*  c #332720",
"=  c #342922",
"-  c #3B2923",
";  c #342D2C",
":  c #37302E",
">  c #38302F",
",  c #3C3332",
"<  c #452F22",
"1  c #5F242D",
"2  c #473524",
"3  c #5B3722",
"4  c #5D3823",
"5  c #423635",
"6  c #443837",
"7  c #453738",
"8  c #463938",
"9  c #4B3D3B",
"0  c #503F3D",
"q  c #633B23",
"w  c #693E23",
"e  c #7E342B",
"r  c #316335",
"t  c #4D403B",
"y  c #4F403E",
"u  c #51413E",
"i  c #54433F",
"p  c #664225",
"a  c #6E4525",
"s  c #6E4926",
"d  c #724023",
"f  c #7C4423",
"g  c #714A26",
"h  c #7A4E27",
"j  c #335D54",
"k  c #534240",
"l  c #544340",
"z  c #574642",
"x  c #584742",
"c  c #5A4744",
"v  c #5B4844",
"b  c #5E4B46",
"n  c #604C47",
"m  c #634F48",
"M  c #644F48",
"N  c #67504B",
"B  c #68524B",
"V  c #6A534D",
"C  c #6C534E",
"Z  c #6B544E",
"A  c #6C544E",
"S  c #6E5550",
"D  c #705650",
"F  c #735952",
"G  c #755A53",
"H  c #775C55",
"J  c #7A5E57",
"K  c #81352C",
"L  c #8A3C29",
"P  c #824623",
"I  c #854A23",
"U  c #8A4C24",
"Y  c #954F24",
"T  c #835327",
"R  c #8B5728",
"E  c #925526",
"W  c #9E5325",
"Q  c #965B27",
"!  c #965C28",
"~  c #995E29",
"^  c #A15625",
"/  c #AB5624",
"(  c #A45926",
")  c #AA5C26",
"_  c #B45B25",
"`  c #B85E25",
"'  c #9F6229",
"]  c #AA6027",
"[  c #A16229",
"{  c #AB6529",
"}  c #B56327",
"|  c #BE6427",
" . c #B56C2A",
".. c #B96F2B",
"X. c #BE712B",
"o. c #C36827",
"O. c #C96827",
"+. c #C36B28",
"@. c #C3742B",
"#. c #CC742A",
"$. c #CD792C",
"%. c #D4752A",
"&. c #DE7729",
"*. c #D37C2C",
"=. c #DC7C2B",
"-. c #E17D2B",
";. c #40853E",
":. c #DD822D",
">. c #E4832D",
",. c #EA862D",
"<. c #ED892D",
"1. c #F38D2E",
"2. c #F8902F",
/* pixels */
"J J J J J J J J J F M z 9 8 8 8 9 b V F S m l u z M F J J J J J H H J J J G V b u y z M D J J J J J J J J J J J J J J J J ",
"F F F F F F G G F Z n l 9 8 6 8 9 z M C V b u 9 k n A F G G G G G G G G G F V v 9 9 l m A G G G F F F F F F F F F F F G F ",
"M M M M m M M M M b z y 8 5 5 5 6 9 x b v u 8 6 9 i b M B V C A A A A A A V m u 8 8 9 c N V V N M m M m m m M M m M M M M ",
"t 9 9 9 9 9 9 9 9 9 9 8 8 5 , ; > , 6 9                             b n m b l 8 , , 5 9 x b x u 9 9 9 9 9 9 9 9 9 9 9 9 t ",
"; ; ; ; ; ; ; ; ; > , 5 6 , ; & & & ; ;                             k k k u 8 , ; & ; 5 9 9 6 , > ; ; ; ; ; ; ; ; ; ; ; ; ",
"# # $ $ $ $ $ $ $ & ; , 5 , ; & $ $ $ $       ;.;.;.;.;.;.;.;.;.;.        8 5 ; & % ; , 6 5 , ; $ $ $ $ $ $ % & % $ $ # # ",
". . # # $ $ $ % % ; > , 5 5 , ; & $ $ %       ;.;.;.;.;.;.;.;.;.;.        8 , > ; ; ; , 5 5 , ; & $ $ $ & ; ; > ; % # . . ",
". . # $ & ; ; ; ; , , 5 6 5 , , ; ; ; ;       ;.;.;.;.;.;.;.;.;.;.;.;.    8 5 , , , , 5 5 5 , , ; ; ; ; , 5 9 9 6 : $ . . ",
"X # $ & > , 5 5 5 5 5 6 6 6 6 5 5 5 5 5       ;.;.;.;.;.;.;.;.;.;.;.;.    8 6 5 5 5 5 6 6 8 6 5 5 5 , 5 8 u b n z 6 ; # . ",
"$ $ & ; , 6 8 8 8 8 8 8 8 8 8 8 8             ;.;.r j j j j j j j ;.;.                  8 8 8 8 8 6 6 8 y v V A m 9 : $ # ",
"; ; ; , 5 8 8 8 8 8 8 8 8 8 8 8 8               j j j j j j j j j j j j                 8 8 8 8 8 8 8 8 u b V S N u , ; & ",
", , , 5 8 8 8 8 8 8 8 8 8 8                     j j j j j j j j j j j j * = = = = =     8 8 8 8 8 8 8 8 y b V D V x 8 , , ",
"6 6 8 8 8 8 8 8 8 8 8 8 8 8           q p a g a / / / / / / / 2.2.2.-.-./ / / 2.-.-.          8 8 8 8 8 9 v V D V b u 9 8 ",
"8 8 8 8 8 8 8 8 8 8 8 8             -.-.-.-.-.-./ / / / / / / 2.2.2.-.-./ / / 2.-.-.          8 8 8 8 8 9 v N D S N b x z ",
"8 8 8 8 8 8 8 8 8 8 8 8             -.-.-.-.-.-./ / / / / / / 2.2.2.-.-./ / / 2.-.-.2.2.            8 8 9 c N D F A V M M ",
"8 8 8 8 8 8 8 8 8 8 8           q U -.-.-.-.-.,./ / / / / / / 2.2.2.-.-./ / / 2.-.-.2.2.            8 8 9 c N D G F S A A ",
"5 5 5 6 6 8 8 8 8 8 8           Y _ -.-.-.-.-.-.-.-.-./ / / / 2.2.2.-.-./ / / 2.-.-.2.2.            8 8 9 c N D F S V N N ",
"; ; , , 5 6 8 8 8 8 8       2.2.-.-.-.-.-.-.-.-.-.-.-./ / / / 2.2.2.-.-./ / / 2.-.-.-.2.2.2.2.          9 v N S A M x u u ",
"$ % ; : , 6 8 8 8           2.2.-.-.-.-.-.-.-.-.-.-.-./ / / / 2.2.2.-.-./ / / 2.2.-.-.2.2.2.2.          9 b V A N z 6 , : ",
"# $ & ; 5 8 9 9 9           2.2.&.-.-.-.-.-.-.-.-.-.-./ / / / 2.2.2.-.-./ / / 2.2.-.-.2.2.2.2.2.2.2.      b V A m y , & $ ",
"$ % ; , 9 u z z l     / / / 2.2.>.-.-.-.-.-.-.-.-.-.-./ / / / 2.2.2.-.-./ / / 2.2.-.-.2.2.2.2.2.2.2.      b V A m y , & $ ",
"; ; , 9 z m M M m     / / / 2.2.,.-.-.-.-.-.-.-.-.-.-./ / / / 2.2.2.-.-./ / / 2.2.-.-.2.2.2.2.2.2.2.      b V A N z 6 ; ; ",
", 5 8 l n V A S A     / / / 2.2.<.,.-.%.                      2.2.2.-.-.-.-.-.2.2.-.-.2.                  b V A B x 9 , , ",
", 5 9 k b N V Z V     / / / 2.2.<.1.,.=.                      2.2.2.-.-.-.-.-.2.2.-.-.2.                  x M V m z 9 5 , ",
"> , , 8 y l z z z     / / / 2.2.<.1.1.:.                      2.2.2.2.2.2.-.-.O.                          k x b x 9 5 , : ",
"& & ; ; , , , , ,     / / / 2.2.<.1.1.:.                            2.2.2.-.-._                           9 u u 9 5 ; & % ",
"# # # $ $ $ $ $ $     / / / 2.2.<.1.1.:.                            2.2.2.-.-.W                           8 9 9 5 : & $ # ",
"# # # # # # . . #     / / / 2.2.<.1.1.:.                            2.2.2.-.-./                           9 u 9 8 : $ # . ",
"@ # @ + + . . . .     / / / 2.2.<.1.1.>.@.~ h a w w w a g g s g T { 2.2.2.-.-./ 2.2.2.2.2.2.2.2.2.2.2.    k x x y , % # . ",
"# # # # # @ . . @     / / / 2.2.<.1.1.<.:.#...{ ( ^ ^ ]  . . . .@.*.2.2.2.-.-./ 2.2.2.2.2.2.2.2.2.2.2.    x m M x 6 & # . ",
"# # # # # # # O #     / / / 2.2.<.<.<.,.,.,.>.%.o.` | #.=.>.:.=.:.>.2.2.2.-.-./ 2.2.2.2.2.2.2.2.2.2.2.    x M M v 6 ; # . ",
"# # # # # # # # #     / / / 2.2.,.,.-.-.,.1.-.-.} W ) #.,.<.*.X...$.2.2.2.-.-./ 2.2.2.2.2.2.2.2.2.2.2.    z b n l 5 & # . ",
"# # # # # # # # #     / / / 2.2.,./ / / -.-.-.-.       .>.:. .      2.2.2.      2.2.2.2.2.2.2.2.2.2.2.    0 l l 9 , & # . ",
"# # @ # # # # # #     / / / 2.2.,./ / / -.-.-.-.      ! #.@.R       2.2.2.      2.2.2.2.                  9 9 9 5 ; $ # . ",
"# # # @ # # # # $     / / / 2.2.,./ / / -.-.-.-.      g ' ~ p       2.2.2.      2.2.2.2.                  8 8 6 , ; $ # . ",
"# # # # # # $ % ;     / / / -.-.,./ / / -.-.-.-.                                2.2.2.2.      / / / -     8 8 5 , ; $ # @ ",
"# @ . # # # $ ; ,     / / / -.-.>./ / / -.-.-.-.                                              / / /       8 8 6 , ; $ # @ ",
"# @ . @ # # & ; ,     / / / -.-.-./ / / -.-.-.-.                                              / / /       9 9 8 5 ; $ # @ ",
"# # . @ # # & ; 5       / / -.-.-.-.&.&.-.-.-.-.-.! s       -.-.-.-.=     -.-.-.-.      d f f / /         9 k u 8 , % # . ",
"# # @ @ # # & ; 5           -.-.-.-.-.>.,.<.-.-.-.$.[       -.-.-.-.2     -.-.-.-.      -.-.-./ /     6 9 l b b l 5 & # . ",
"# # . @ # # & > 5 8             -.-.-.-.,.,.,.,.1.<.@.      -.-.-.-.p     -.-.-.-.      -.-.-.        8 9 x m M v 6 ; # . ",
"# # . . # # ; , 8 9 9 9         -.-.-.-.-.-.-.-.-.-.-./ / / -.-.-.-./ / / -.-.-.-.f d f             7 8 9 x m M x 6 ; # . ",
"# # . . # $ ; 6 l x z 9           f -.-.-.-.-.-.-.-.-./ / / -.-.-.-./ / / -.-.-.-.-.-.w             8 8 9 l v v u , & # . ",
"# # . . @ $ > 9 b m b u 8 8 6     4 U / _ _ _ | #.*.$./ / / +.$.-.-./ / / #.-.-.-.-.-.3       6 8 8 8 8 8 9 u u 8 , $ # . ",
"# # . . @ $ > y b M n z 9 8 8     < q f P P P U E ! Q / / / E Q ~ E / / / Q ~ Q E I w <       8 8 8 8 8 8 8 8 8 , ; $ # . ",
"# # . . # $ ; 6 i v b c z z z                                                                 8 8 8 8 8 8 8 8 5 , ; $ # @ ",
"# # . @ # # % ; 5 9 l b m M N                                                                 8 8 8 8 8 8 8 8 5 , ; $ # @ ",
"# # # # # # # $ & > 9 v V S F     1 1 1 1 1 1 1 1 1 1 1 1 1 1 1 1 1 1 1 1 1 1 1 1 1 1 1 1     8 8 8 8 8 8 8 8 8 , ; $ # . ",
"# # # # # # # O # & , u m V Z     1 1 1 1 1 1 1 1 1 1 1 1 1 1 1 1 1 1 1 1 1 1 1 1 1 1 1 1     8 8 8 8 8 8 9 9 9 5 ; $ # . ",
"# # # # # . . . # $ ; 6 u z z     1 1 1 1 1 1 1 1 1 1 1 1 1 1 1 1 1 1 1 1 1 1 1 1 1 1 1 1     8 8 8 8 8 9 u l l 9 , & # . ",
"# # # # # # # o # # $ ; > , ,     1 1 1 1 1 1 1 1 1 1 1 1 1 1 1 1 1 1 1 1 1 1 1 1 1 1 1 1     8 8 8 8 8 9 z b m z 5 & # . ",
"# # @ @ # # @ X # # # # $ $ $     L L e K K e e e e e e e e e e e e e e e e e L L L L L L     8 8 8 6 8 9 c M V b 8 ; # . ",
"+ + + . . . . + . + @ + + . .     L L L L L L L L L L L L L L L L L L L L L L L L L L L L     7 8 6 6 8 9 b V A n 9 ; # . ",
". . . . . . + . + . . . + + +     L L L L L L L L L L L L L L L L L L L L L L L L L L L L     6 6 6 6 8 9 b V A n 8 ; # . ",
"# # # # # # # # # # # # # + .     L L L L L L L L L L L L L L L L L L L L L L L L L L L L     8 8 8 8 8 0 b V A n 9 ; # . ",
"& & & & & & & & & % $ # # # O     L L L L L L L L L L L L L L L L L L L L L L L L L L L L     9 9 9 9 9 l n V A M u , & $ ",
"6 6 6 6 6 6 6 6 6 , ; $ # . .     1 1 1 1 1 1 1 1 1 1 1 1 1 1 1 1 1 1 1 1 1 1 1 1 1 1 1 1     x v c c b n B D F V b y 6 5 ",
"v v v v v b b b v u 5 ; # . .     1 1 1 1 1 1 1 1 1 1 1 1 1 1 1 1 1 1 1 1 1 1 1 1 1 1 1 1     N V V B B V A F G D B n b v ",
"V V V V V V V V B b 9 : $ # .     1 1 1 1 1 1 1                       - 1 1 1 1 1 1 1 1 1     A A A A A A A D D A A V V V ",
"m m m m m m m m n x 9 , & # #     1 1 1 1 1                             1 1 1 1 1 1 1 1 1     m n n n n n n n n n n m m m ",
"9 9 9 9 9 9 9 9 9 8 5 , ; & $     1 1 1 1 1     > 5 6 9 9 9 9 9 9 9     1 1 1 1 1             y 9 9 9 9 9 9 9 9 9 9 9 9 9 ",
"; ; ; ; ; ; ; ; ; ; , , , ; &     1 1 1 1 1     % & ; ; ; ; ; ; ; ;     1 1 1 1 1       5 6 5 , ; ; ; ; ; ; ; ; ; ; ; ; ; ",
"# # # # # # # # # $ ; , 5 , ;     1 1 1 1 1     # # # # # # # # # #     1 1 1 1 1       , 5 > & # # # # # # # # # # # # # ",
". . . . . . . . . # ; , 5 , ;                   . . . . . . . . . .                     , , ; $ # . . . . . . . . . . . . "
};
