/* XPM */
static char *dce7afbf4d69458b9475be0fed05ac95yx5CYlM1Kxk7GNRL[] = {
/* columns rows colors chars-per-pixel */
"64 64 174 2 ",
"   c #161616",
".  c #171718",
"X  c #1D1C1C",
"o  c #211E1E",
"O  c #24201F",
"+  c #1F2020",
"@  c #242323",
"#  c #2A2626",
"$  c #2C2827",
"%  c #2D2929",
"&  c #312927",
"*  c #332C2C",
"=  c #392E2D",
"-  c #37302F",
";  c #3B312F",
":  c #373331",
">  c #3D3332",
",  c #423634",
"<  c #443936",
"1  c #493936",
"2  c #463A39",
"3  c #493C3A",
"4  c #513E3A",
"5  c #4D413C",
"6  c #52413E",
"7  c #58443F",
"8  c #4E4640",
"9  c #4F4842",
"0  c #544340",
"q  c #5A4743",
"w  c #544B44",
"e  c #5C4945",
"r  c #554E48",
"t  c #565049",
"y  c #614C46",
"u  c #654E49",
"i  c #645246",
"p  c #66524A",
"a  c #6A534D",
"s  c #67584E",
"d  c #6D594D",
"f  c #715C4F",
"g  c #6F5650",
"h  c #675952",
"j  c #6E5A51",
"k  c #705751",
"l  c #735C52",
"z  c #795E56",
"x  c #766154",
"c  c #796456",
"v  c #74665C",
"b  c #7C6559",
"n  c #7E685A",
"m  c #7A6C60",
"M  c #7E7267",
"N  c #81665E",
"B  c #816A5B",
"V  c #80695B",
"C  c #816A5C",
"Z  c #816B5C",
"A  c #816B5D",
"S  c #826B5C",
"D  c #826B5D",
"F  c #836B5D",
"G  c #826A5C",
"H  c #826C5C",
"J  c #826C5D",
"K  c #836C5D",
"L  c #836D5D",
"P  c #846C5D",
"I  c #856D5E",
"U  c #846D5E",
"Y  c #856E5E",
"T  c #856E5F",
"R  c #866E5F",
"E  c #836B5F",
"W  c #876F60",
"Q  c #866F60",
"!  c #856C62",
"~  c #886F60",
"^  c #896E65",
"/  c #877060",
"(  c #877061",
")  c #877162",
"_  c #857265",
"`  c #887060",
"'  c #887061",
"]  c #897061",
"[  c #897161",
"{  c #897163",
"}  c #8A7162",
"|  c #8B7363",
" . c #8A7262",
".. c #8C7363",
"X. c #8C7364",
"o. c #8D7464",
"O. c #8E7565",
"+. c #8E7464",
"@. c #8E7665",
"#. c #8E7666",
"$. c #8F7666",
"%. c #8B7465",
"&. c #847469",
"*. c #8D7569",
"=. c #8E7A6C",
"-. c #907766",
";. c #907767",
":. c #907666",
">. c #917867",
",. c #90766A",
"<. c #937968",
"1. c #947A69",
"2. c #957B6A",
"3. c #967B6A",
"4. c #967C6B",
"5. c #977D6C",
"6. c #927B6B",
"7. c #987D6C",
"8. c #997E6D",
"9. c #9A7F6D",
"0. c #997F6E",
"q. c #9A7F6E",
"w. c #987E6D",
"e. c #957D71",
"r. c #9B7F70",
"t. c #93806F",
"y. c #9B806E",
"u. c #9B806F",
"i. c #9C816F",
"p. c #958172",
"a. c #9D8170",
"s. c #9D8270",
"d. c #9F8371",
"f. c #9E8371",
"g. c #9F8372",
"h. c #9F8472",
"j. c #9B8374",
"k. c #9D8877",
"l. c #9D8578",
"z. c #9C8B7A",
"x. c #A08472",
"c. c #A18573",
"v. c #A08573",
"b. c #A18673",
"n. c #A28674",
"m. c #A38774",
"M. c #A48774",
"N. c #A28675",
"B. c #A48977",
"V. c #A48C7B",
"C. c #A98D7A",
"Z. c #A3917F",
"A. c #AD917D",
"S. c #A49382",
"D. c #AB9483",
"F. c #AC9987",
"G. c #AD9A89",
"H. c #B29783",
"J. c #B49985",
"K. c #B89B87",
"L. c #B39D8C",
"P. c #B89E8A",
"I. c #B6A08E",
"U. c #BBA28E",
"Y. c #BCA591",
"T. c #BFAA96",
"R. c #C0A792",
"E. c #C3AA95",
"W. c #C3AE9A",
"Q. c #C6B19D",
"!. c #C9B39E",
"~. c #CCB6A1",
"^. c #CEB9A3",
"/. c #D2BCA6",
/* pixels */
"l f d d i e e y i d d l x x x x x x x x x x x x x c c l p 5 * o X o & , 4 7 i d x x x x x x x x x x x x x x x l l d d d d d p p ",
"l l d d i y e y p d f l x x x x x x x x x x x x c c c x p 5 * o X o & , 6 y p f x x c x x x x x x x x x x x x l l f d d d d p d ",
"l l f d i i e i p d l x x x x c c c c c c c c c c b b x p 5 * o X @ = 1 7 u a f x c c c c c c c c c c c c x x x l l d d d d d d ",
"l l f d p i i i d d l x x c c b b b c c c c c c b n n x d 5 * O o # ; 6 y a f x c c b b c c c c c c b b b b c x x l l d d d d d ",
"x l f d d p i p d l x c b b b n n n n n n n n n n B B c d 6 - O o & < e a l x c b n n n n n n n n n n n n b b c x x l f d d d d ",
"x x l f d d p d d x c b n S S S J J S S S S S S J Y Y n d 7 - @ @ * 5 d x B S S S J J J S S S S S S J J J S B n b c x l l d d d ",
"c x x l f d d d l c B S Y W W (  . .( ( ( ( ( (  . .| Y x w ; # # - w l J  . . .( ( ( ( ( (  . . . . . . .W Y Y S n c x x l f f ",
"n b c x l f f l c B Y  . .#.#.#.#.#.#.#.#.#.#.#.:.6.>.| b e > # # > e b X.6.6.:.#.#.#.#.#.#.#.:.:.:.:.:.#.#.#. . .Y S b x x l l ",
"B B n b x x x c B ~ #.:.6.3.3.4.4.4.4.4.4.4.4.4.9.9.9.6.S i < % % < i S 6.u.u.9.4.4.4.4.4.5.9.9.9.9.9.9.9.3.3.6.#... .J n c x x ",
"Y Y Y B n b b S  .:.3.9.i.g.g.g.h.h.h.g.g.g.g.g.c.m.m.u.( s 3 * * 3 s ( i.B.M.c.g.g.g.g.h.c.c.c.m.m.c.c.c.g.g.u.9.3.:. .Y B n b ",
" . . .( Y Y Y  .6.9.g.m.B.C.C.C.C.C.C.C.C.C.C.C.C.A.C.B.=.j 5 * * 5 j =.B.C.A.C.C.C.C.C.C.C.C.B.B.B.B.C.C.C.C.B.c.g.9.6.#.( Y J ",
"6.6.6.=.#.#.*.6.s.B.C.A.D.H.H.H.J.J.J.H.H.H.H.H.J.K.J.D.s.v 8 - - 8 v s.D.K.K.J.H.J.J.J.H.H.C.C.m.m.C.C.D.H.H.D.A.C.B.s.5.=.#.#.",
"k.k.k.k.p.p.p.k.V.D.L.U.U.U.Y.Y.Y.Y.Y.Y.Y.Y.Y.Y.R.E.E.U.V.m w : : w m V.U.E.E.R.Y.R.R.R.Y.P.D.m.e.e.m.D.P.U.Y.U.L.J.D.V.k.j.p.t.",
"S.S.Z.V.z.z.V.S.F.I.T.E.W.Q.!.!.!.!.!.!.!.!.!.!.!.~.~.W.D.&.r : : r &.D.W.~.~.!.!.!.!.!.Q.Y.D.j.,.,.s.D.Y.W.!.Q.E.Y.I.F.S.z.z.z.",
"D.D.D.S.S.Z.S.D.L.Y.W.Q.!.~.~.~.~.~.~.~.~.~.~.~.^././.Q.G.&.t : : t &.G.Q././.^.~.~.^.^.~.T.D.e.~ W 6.D.Y.!.~.~.Q.T.Y.G.D.S.V.z.",
"S.S.S.V.z.z.z.S.F.I.Y.T.W.W.Q.Q.Q.Q.Q.Q.Q.Q.Q.Q.!.~.~.W.D.M r : : r M D.W.~.~.!.Q.Q.!.!.W.Y.V.,.S N *.V.I.W.Q.W.T.Y.L.F.S.z.z.z.",
"p.p.p.e.=.=.6.p.l.V.D.G.L.L.L.L.L.L.L.L.L.L.L.L.L.Y.Y.L.l.v 9 : : 9 v l.G.I.Y.L.L.L.I.I.L.D.j.^ b b ^ e.D.L.L.L.F.D.V.z.p.=.=.=.",
"! ! ! n n b n ! _ =.e.s.j.j.k.l.l.l.l.l.l.l.l.l.l.V.V.j.&.h 5 * * 5 h &.j.V.V.l.l.l.l.l.j.e.*.! b b N *.e.j.k.j.p.6.*._ ! n b b ",
"g g a a a a a g l c n S ! ! W W W W W W W W W W ^ ^ ^ ! l e < % % < e l ! ^ ^ ^ W W W ^ W ! N b z z c n ! ! ! ! S n c l g a a p ",
"e e e q q q q y u a a k l l l l l l l l l l l l l l l l p 5 > % % > 6 p l l l l l l l l l l l l l l l l l l l l g a p u e q q 7 ",
"6 4 4 4 4 3 4 6 0 e y u u u u u u u u u u u u u p a a u q 3 - # # - 3 q u a a p u u u u u p a a a a a a p u u u y e q 7 7 4 4 1 ",
"1 1 1 < 1 , < 1 3 4 0 q q q q q e e q q q q q q e e e q 6 , * # # * , 6 q e e e q q q q q e e e e e e e e q q q q 0 6 3 1 < , , ",
", , , , > ; > , < 3 3 3 5 5 6 6 6 0 0 0 6 6 6 6 6 0 0 6 3 > * # # * > 3 6 0 0 6 0 0 0 0 6 6 6 0 0 0 0 6 6 6 6 3 3 3 3 < , > ; ; ",
"= = = = * * * = > , , < 2 2 2 2 3 3 3 3 3 3 3 3 3 3 3 2 , - % # # % - , 2 3 3 2 3 3 3 3 3 3 3 3 3 3 3 3 3 2 2 2 < , , > = * * * ",
"* * & $ $ $ $ * * * - > > > > > > > > > > > > > > > > > - % # @ @ # % - > > > > > > > > > > > > > > > > > > > > > = * * * $ $ # ",
"@ @ @ @ @ @ @ @ # $ % % * * * * * * * * * * * * * * * * % # @ @ @ @ # % % * * * * * * * * * * * * * * * * * % % % % # # @ @ o o ",
"o o o X o o o o @ @ # # # # # # # # # # # # # # # # # # # @ @ + @ @ @ # # # # # # # # # # # # # # $ # # # # # # # @ @ o o X X X ",
"X X X X X X X X X @ @ # # # # # # # # # # # # # # # # # # # # @ @ # # # # # # # # # # # # # # # # # # # # # # # @ @ @ o X X X X ",
"@ @ @ o X . . X O # $ % * * * * * * * * * * * * * * * * * * * * * * * * * * * * * * * * % % # # @ @ # # % % % % $ $ # # @ @ O o ",
"= * * $ o X . o # * > , < < < < < < < < < < < < < < < < < < < < < < < < < < < < < < < < < > * % # @ # * > < < < , > ; - * * * * ",
"3 1 , = # o X @ * < 6 q q q q q e e q q q q q q q q q q e e e e e e e e q q q q q e e e q 6 < * # # * , 5 q q q 7 7 6 3 1 < , , ",
"q 7 4 , * O o # - 6 y p a a a a a a a a a a a a a a a a a a a a a a a a a a a a a a a a a e 3 > % # - 3 e a a a p y y q 7 7 4 4 ",
"e q 6 , * @ o # > 7 u a g k g k k k k k k k k k k k k k k k k k k k k k k k k k k k l l a u 5 > % % - 3 y a k g a p u y q 7 7 7 ",
"7 7 3 , & O X # - 3 e p a a a a a a a a a a a a a a a a a a a a a a a a a a a a a a a a a e 3 > $ # - 3 e p a a u y e q 7 4 4 4 ",
"3 1 < - $ o X @ * < 6 q e e e e e e e e e e e e e e e e e e e e e e e e e e e e e e e e e 0 < * # # * < 6 e e e q q 6 3 1 1 1 < ",
", , ; * @ o X @ * > 3 3 6 6 6 6 6 6 6 6 6 6 6 6 6 6 6 6 6 6 6 6 6 6 6 6 6 6 6 6 6 6 0 0 5 3 > * # # % > 2 3 6 6 3 3 3 < , > ; ; ",
"> = = & @ X X o $ = , 2 3 3 3 3 3 3 3 3 3 3 3 3 3 3 3 3 3 3 2 2 2 2 3 3 3 3 3 3 3 3 3 3 3 , > % # # % - , 2 3 3 2 < , > - = = * ",
"= = * $ @ X X o $ * , < 2 2 2 2 2 2 2 2 2 2 2 2 2 2 2 2 2 , > > > > , 2 2 2 2 2 2 2 3 3 2 , - % # # % * > 2 2 2 < , > > = * * * ",
"; = * $ @ X X o $ * , < 2 2 2 2 2 2 2 2 2 2 2 2 3 3 3 2 < > > * * > > < 2 3 3 3 2 3 3 3 2 , - % # # % * , 2 2 2 < , > > = * * * ",
"; = * $ @ X X o $ * , 2 2 2 2 3 3 3 3 3 3 3 3 3 3 3 3 2 , > * % % * > , 2 3 3 3 3 3 3 3 2 , > % # # % * , 2 3 2 < , , > = * * * ",
"= = * $ @ X X o # * > , 2 2 2 2 2 2 2 2 2 2 2 2 2 2 2 2 > - % # # % - > 2 2 2 2 2 2 2 2 2 > - % # # $ * > < 2 < , , > - = * * * ",
"* * & @ o X . o @ * - > > > > > > > > > > > > > > , , > > * # @ @ # * > > > > > > > > > > > * # # @ # * : > > > > > * * * & & $ ",
"# @ @ o X . . X @ # % * * * * * * * * * * * * * * * * * * $ # @ @ @ # % * * * * * * * * * * # # @ @ # # % * * * * * % $ # @ @ @ ",
"o o X X . . . . X @ # # # # # # # # # # # # # # $ % $ $ # # @ @ @ @ # # # # # # # # # # # # # @ @ @ @ # # # # # # # @ @ o o o o ",
"o X X X . . . X X @ @ @ # # # # # # # # # # # # # # # # # @ @ @ @ @ # # # # # # # # # # # # # @ @ @ @ # # # # # @ @ @ X X . . . ",
"@ @ @ @ O O O @ @ # $ % % % % * % % * * * % % % % # # @ @ # # % * * % * % * % % % % * * * * % % % % * * * % % % % # @ O X . . . ",
"* * * * * * * * - > > > , < < < < < < < < < < , > * # @ # % - > < < < < < < < < < < < < < < < < < < < < < < < , , > * $ o . . . ",
"1 1 < < , , < 1 3 6 6 q q q q q q q q q q e q q 3 > % # # * < 6 q e e q q q q q q q q q q q q q q q q q q q q q q 6 < * # X .   ",
"7 7 7 7 6 4 6 7 q y u p a a a a a a a a a a a p q < * # % > 6 y a a a a a a a a a a a a a a a a a a a a a a a a p y 6 , $ o .   ",
"q q q q 7 7 7 q y u a a a g g k k k k k l l l a e 3 * # % > 6 p g l l k k k k k k k k k k k k k k k k k k g g g a u 7 , & o .   ",
"7 7 7 7 6 4 6 7 q e u p a a a a a a a a a a a p q < * # % > 5 u a a a a a a a a a a a a a a a a a a a a a a a a p y 6 , $ o .   ",
"3 1 1 1 1 1 1 1 4 7 q e e e e e e e e e e u e e 5 > * # % - 3 q e u y e e e e e e e e e e e e e e e e e e e e e e q 3 - # X . . ",
", , , , > > > , < 3 3 3 5 6 6 6 6 6 6 6 0 0 0 5 2 > % # # * > 3 6 0 0 6 6 6 6 6 6 6 6 6 6 6 6 6 0 0 6 0 0 6 6 6 3 3 , * @ X . . ",
"; = = = * * * = > , < 2 3 3 3 3 3 3 3 3 3 3 3 2 > * $ # # * > < 3 3 3 3 3 3 3 3 3 3 3 3 3 3 3 3 3 3 3 3 2 2 2 2 2 , > * @ X . . ",
"= = = * & & $ * * > , < 2 2 2 2 2 2 2 2 3 3 3 2 > * # # # % > , 2 3 3 2 2 2 2 2 2 2 2 2 2 2 3 2 2 2 < , > > > , , , = $ @ X . . ",
"= = = * $ @ @ $ * > , < 2 2 2 2 2 2 2 2 3 3 3 2 > * # # # * > , 2 3 3 3 2 2 2 2 2 2 2 2 2 2 3 3 2 2 , > * * * > > > - $ O X . . ",
"= = * * # O o @ * - , 2 2 2 2 3 3 3 3 3 2 3 3 2 > * $ # # % > , 2 3 3 3 2 2 3 3 3 3 3 3 2 2 3 3 3 < > * % % * * > > - % @ X . . ",
"= = * $ @ o X @ $ * > , 2 2 2 2 2 2 2 2 2 2 2 < > * # # # % > , 2 2 2 2 2 2 2 2 2 2 2 2 2 2 2 2 2 , > * # # $ * > > - % @ . . . ",
"* * * # O X X o # * > > > > > > > > > > > > > > > * # # # % * > > , , , > > > > > > > > > > > > > > * % # @ # % * - * $ @ X . . ",
"$ $ # @ o X . X @ $ * * * * * * * * * * * - * * * % # @ @ # % * * - * * * * * * * * * * * * * - * * % # @ @ @ # % * % # @ X . . ",
"@ @ @ o X X . X @ @ # % % % % % % % % % % % % $ # # @ @ @ # # $ % % % % % % % % % % % % % % % % % $ # # @ @ @ # # # # @ @ X X X ",
"o o X X X X X X X @ @ @ # # # # # # # # # # # # @ @ @ @ @ @ @ # # # # # # # # # # # # # # # # # # # @ @ @ @ @ @ @ @ @ @ @ + @ X ",
"X X X X X X X X X X @ @ @ @ @ @ @ @ @ @ @ @ @ @ @ @ @ @ @ @ @ @ @ @ @ @ @ @ @ @ @ @ @ @ @ @ @ @ @ @ @ @ @ @ @ @ @ @ @ @ @ @ @ + ",
". . X X X X X X X X X X + + + + + + @ + + + + + + + @ @ @ @ + + + + + + + + + + + + @ + + + + + + @ @ @ @ @ @ @ @ @ @ @ @ @ @ @ "
};
